<svg width="256" height="256" viewBox="0 0 256 256" fill="none" xmlns="http://www.w3.org/2000/svg">
<path fill-rule="evenodd" clip-rule="evenodd" d="M168 162C168 161.448 167.552 161 167 161H88C87.4477 161 87 161.448 87 162V170C87 170.552 87.4477 171 88 171H167C167.552 171 168 170.552 168 170V162ZM165 168V164H90V168H165Z" fill="black"/>
<path fill-rule="evenodd" clip-rule="evenodd" d="M78 161C78.5523 161 79 161.448 79 162V170C79 170.552 78.5523 171 78 171H27C26.4477 171 26 170.552 26 170V162C26 161.448 26.4477 161 27 161H78ZM76 164V168H29V164H76Z" fill="black"/>
<path fill-rule="evenodd" clip-rule="evenodd" d="M176 162C176 161.448 176.448 161 177 161H228C228.552 161 229 161.448 229 162V170C229 170.552 228.552 171 228 171H177C176.448 171 176 170.552 176 170V162ZM179 168V164H226V168H179Z" fill="black"/>
<path d="M84.5 176V213H81.5V176H84.5Z" fill="black"/>
<path d="M170.5 213V176H173.5V213H170.5Z" fill="black"/>
<path d="M113.5 184L118.263 175.75H108.737L113.5 184Z" fill="black"/>
<path d="M57.2631 175.75L52.5 184L47.7369 175.75H57.2631Z" fill="black"/>
<path d="M202.5 184L197.737 175.75H207.263L202.5 184Z" fill="black"/>
<path d="M146.263 175.75L141.5 184L136.737 175.75H146.263Z" fill="black"/>
<path fill-rule="evenodd" clip-rule="evenodd" d="M188 136C185.938 136 184.267 137.671 184.267 139.733V140.267H183.733C181.671 140.267 180 141.938 180 144C180 146.062 181.671 147.733 183.733 147.733H184.267V148.267C184.267 150.329 185.938 152 188 152C190.062 152 191.733 150.329 191.733 148.267V147.733H192.267C194.329 147.733 196 146.062 196 144C196 141.938 194.329 140.267 192.267 140.267H191.733V139.733C191.733 137.671 190.062 136 188 136ZM188.733 140.467V139.733C188.733 139.328 188.405 139 188 139C187.595 139 187.267 139.328 187.267 139.733V140.467H188.733ZM183.733 143.267H184.467V144.733H183.733C183.328 144.733 183 144.405 183 144C183 143.595 183.328 143.267 183.733 143.267ZM191.533 144.733H192.267C192.672 144.733 193 144.405 193 144C193 143.595 192.672 143.267 192.267 143.267H191.533V144.733ZM187.267 148.267V147.533H188.733V148.267C188.733 148.672 188.405 149 188 149C187.595 149 187.267 148.672 187.267 148.267ZM188.533 143.467V144.533H187.467V143.467H188.533Z" fill="black"/>
<path fill-rule="evenodd" clip-rule="evenodd" d="M67 136C69.0619 136 70.7333 137.671 70.7333 139.733V140.267H71.2667C73.3285 140.267 75 141.938 75 144C75 146.062 73.3285 147.733 71.2667 147.733H70.7334V148.267C70.7334 150.329 69.0619 152 67.0001 152C64.9382 152 63.2667 150.329 63.2667 148.267V147.733H62.7333C60.6715 147.733 59 146.062 59 144C59 141.938 60.6715 140.267 62.7333 140.267H63.2667V139.733C63.2667 137.671 64.9381 136 67 136ZM66.2667 140.467V139.733C66.2667 139.328 66.595 139 67 139C67.405 139 67.7333 139.328 67.7333 139.733V140.467H66.2667ZM71.2667 143.267H70.5333V144.733H71.2667C71.6717 144.733 72 144.405 72 144C72 143.595 71.6717 143.267 71.2667 143.267ZM63.4667 144.733H62.7333C62.3283 144.733 62 144.405 62 144C62 143.595 62.3283 143.267 62.7333 143.267H63.4667V144.733ZM67.7334 148.267V147.533H66.2667V148.267C66.2667 148.672 66.595 149 67.0001 149C67.4051 149 67.7334 148.672 67.7334 148.267ZM66.4667 143.467V144.533H67.5333V143.467H66.4667Z" fill="black"/>
<path fill-rule="evenodd" clip-rule="evenodd" d="M97 136C99.0619 136 100.733 137.671 100.733 139.733V140.267H101.267C103.329 140.267 105 141.938 105 144C105 146.062 103.329 147.733 101.267 147.733H100.733V148.267C100.733 150.329 99.0619 152 97.0001 152C94.9382 152 93.2667 150.329 93.2667 148.267V147.733H92.7333C90.6715 147.733 89 146.062 89 144C89 141.938 90.6715 140.267 92.7333 140.267H93.2667V139.733C93.2667 137.671 94.9381 136 97 136ZM96.2667 140.467V139.733C96.2667 139.328 96.595 139 97 139C97.405 139 97.7333 139.328 97.7333 139.733V140.467H96.2667ZM101.267 143.267H100.533V144.733H101.267C101.672 144.733 102 144.405 102 144C102 143.595 101.672 143.267 101.267 143.267ZM93.4667 144.733H92.7333C92.3283 144.733 92 144.405 92 144C92 143.595 92.3283 143.267 92.7333 143.267H93.4667V144.733ZM97.7334 148.267V147.533H96.2667V148.267C96.2667 148.672 96.595 149 97.0001 149C97.4051 149 97.7334 148.672 97.7334 148.267ZM96.4667 143.467V144.533H97.5333V143.467H96.4667Z" fill="black"/>
<path fill-rule="evenodd" clip-rule="evenodd" d="M114 136C116.062 136 117.733 137.671 117.733 139.733V140.267H118.267C120.329 140.267 122 141.938 122 144C122 146.062 120.329 147.733 118.267 147.733H117.733V148.267C117.733 150.329 116.062 152 114 152C111.938 152 110.267 150.329 110.267 148.267V147.733H109.733C107.671 147.733 106 146.062 106 144C106 141.938 107.671 140.267 109.733 140.267H110.267V139.733C110.267 137.671 111.938 136 114 136ZM113.267 140.467V139.733C113.267 139.328 113.595 139 114 139C114.405 139 114.733 139.328 114.733 139.733V140.467H113.267ZM118.267 143.267H117.533V144.733H118.267C118.672 144.733 119 144.405 119 144C119 143.595 118.672 143.267 118.267 143.267ZM110.467 144.733H109.733C109.328 144.733 109 144.405 109 144C109 143.595 109.328 143.267 109.733 143.267H110.467V144.733ZM114.733 148.267V147.533H113.267V148.267C113.267 148.672 113.595 149 114 149C114.405 149 114.733 148.672 114.733 148.267ZM113.467 143.467V144.533H114.533V143.467H113.467Z" fill="black"/>
<path fill-rule="evenodd" clip-rule="evenodd" d="M141 136C143.062 136 144.733 137.671 144.733 139.733V140.267H145.267C147.329 140.267 149 141.938 149 144C149 146.062 147.329 147.733 145.267 147.733H144.733V148.267C144.733 150.329 143.062 152 141 152C138.938 152 137.267 150.329 137.267 148.267V147.733H136.733C134.671 147.733 133 146.062 133 144C133 141.938 134.671 140.267 136.733 140.267H137.267V139.733C137.267 137.671 138.938 136 141 136ZM140.267 140.467V139.733C140.267 139.328 140.595 139 141 139C141.405 139 141.733 139.328 141.733 139.733V140.467H140.267ZM145.267 143.267H144.533V144.733H145.267C145.672 144.733 146 144.405 146 144C146 143.595 145.672 143.267 145.267 143.267ZM137.467 144.733H136.733C136.328 144.733 136 144.405 136 144C136 143.595 136.328 143.267 136.733 143.267H137.467V144.733ZM141.733 148.267V147.533H140.267V148.267C140.267 148.672 140.595 149 141 149C141.405 149 141.733 148.672 141.733 148.267ZM140.467 143.467V144.533H141.533V143.467H140.467Z" fill="black"/>
<path fill-rule="evenodd" clip-rule="evenodd" d="M158 136C160.062 136 161.733 137.671 161.733 139.733V140.267H162.267C164.329 140.267 166 141.938 166 144C166 146.062 164.329 147.733 162.267 147.733H161.733V148.267C161.733 150.329 160.062 152 158 152C155.938 152 154.267 150.329 154.267 148.267V147.733H153.733C151.671 147.733 150 146.062 150 144C150 141.938 151.671 140.267 153.733 140.267H154.267V139.733C154.267 137.671 155.938 136 158 136ZM157.267 140.467V139.733C157.267 139.328 157.595 139 158 139C158.405 139 158.733 139.328 158.733 139.733V140.467H157.267ZM162.267 143.267H161.533V144.733H162.267C162.672 144.733 163 144.405 163 144C163 143.595 162.672 143.267 162.267 143.267ZM154.467 144.733H153.733C153.328 144.733 153 144.405 153 144C153 143.595 153.328 143.267 153.733 143.267H154.467V144.733ZM158.733 148.267V147.533H157.267V148.267C157.267 148.672 157.595 149 158 149C158.405 149 158.733 148.672 158.733 148.267ZM157.467 143.467V144.533H158.533V143.467H157.467Z" fill="black"/>
<path fill-rule="evenodd" clip-rule="evenodd" d="M39 136C41.0619 136 42.7333 137.671 42.7333 139.733V140.267H43.2667C45.3285 140.267 47 141.938 47 144C47 146.062 45.3285 147.733 43.2667 147.733H42.7334V148.267C42.7334 150.329 41.0619 152 39.0001 152C36.9382 152 35.2667 150.329 35.2667 148.267V147.733H34.7333C32.6715 147.733 31 146.062 31 144C31 141.938 32.6715 140.267 34.7333 140.267H35.2667V139.733C35.2667 137.671 36.9381 136 39 136ZM38.2667 140.467V139.733C38.2667 139.328 38.595 139 39 139C39.405 139 39.7333 139.328 39.7333 139.733V140.467H38.2667ZM43.2667 143.267H42.5333V144.733H43.2667C43.6717 144.733 44 144.405 44 144C44 143.595 43.6717 143.267 43.2667 143.267ZM35.4667 144.733H34.7333C34.3283 144.733 34 144.405 34 144C34 143.595 34.3283 143.267 34.7333 143.267H35.4667V144.733ZM39.7334 148.267V147.533H38.2667V148.267C38.2667 148.672 38.595 149 39.0001 149C39.4051 149 39.7334 148.672 39.7334 148.267ZM38.4667 144.533V143.467H39.5333V144.533H38.4667Z" fill="black"/>
<path fill-rule="evenodd" clip-rule="evenodd" d="M216 136C213.938 136 212.267 137.671 212.267 139.733V140.267H211.733C209.671 140.267 208 141.938 208 144C208 146.062 209.671 147.733 211.733 147.733H212.267V148.267C212.267 150.329 213.938 152 216 152C218.062 152 219.733 150.329 219.733 148.267V147.733H220.267C222.329 147.733 224 146.062 224 144C224 141.938 222.329 140.267 220.267 140.267H219.733V139.733C219.733 137.671 218.062 136 216 136ZM216.733 140.467V139.733C216.733 139.328 216.405 139 216 139C215.595 139 215.267 139.328 215.267 139.733V140.467H216.733ZM211.733 143.267H212.467V144.733H211.733C211.328 144.733 211 144.405 211 144C211 143.595 211.328 143.267 211.733 143.267ZM219.533 144.733H220.267C220.672 144.733 221 144.405 221 144C221 143.595 220.672 143.267 220.267 143.267H219.533V144.733ZM215.267 148.267V147.533H216.733V148.267C216.733 148.672 216.405 149 216 149C215.595 149 215.267 148.672 215.267 148.267ZM216.533 144.533V143.467H215.467V144.533H216.533Z" fill="black"/>
<path fill-rule="evenodd" clip-rule="evenodd" d="M234 231C234 231.552 233.552 232 233 232H225C224.448 232 224 231.552 224 231V219C224 218.448 224.448 218 225 218H226V188.346C226 183.099 221.747 178.846 216.5 178.846C211.253 178.846 207 183.099 207 188.346V218H208C208.552 218 209 218.448 209 219V231C209 231.552 208.552 232 208 232H197C196.448 232 196 231.552 196 231V219C196 218.448 196.448 218 197 218H198V188.346C198 183.099 193.747 178.846 188.5 178.846C183.253 178.846 179 183.099 179 188.346V218H181C181.552 218 182 218.448 182 219V231C182 231.552 181.552 232 181 232H164C163.448 232 163 231.552 163 231V229H148V231C148 231.552 147.552 232 147 232H136C135.448 232 135 231.552 135 231V229H120V231C120 231.552 119.552 232 119 232H108C107.448 232 107 231.552 107 231V229H92V231C92 231.552 91.5523 232 91 232H74C73.4477 232 73 231.552 73 231V219C73 218.448 73.4477 218 74 218H76V188.346C76 183.099 71.7467 178.846 66.5 178.846C61.2533 178.846 57 183.099 57 188.346V218H58C58.5523 218 59 218.448 59 219V231C59 231.552 58.5523 232 58 232H47C46.4477 232 46 231.552 46 231V219C46 218.448 46.4477 218 47 218H48V188.346C48 183.099 43.7467 178.846 38.5 178.846C33.2533 178.846 29 183.099 29 188.346V218H30C30.5523 218 31 218.448 31 219V231C31 231.552 30.5523 232 30 232H22C21.4477 232 21 231.552 21 231V118.001C21.0416 118 21.0833 118 21.125 118H22C26.4183 118 30 121.582 30 126V132H48C48 129.239 50.2386 127 53 127C55.7614 127 58 129.239 58 132H76V124C76 120.686 78.6863 118 82 118C85.3137 118 88 120.686 88 124V132H123V131.5C123 129.015 125.015 127 127.5 127C129.985 127 132 129.015 132 131.5V132H167V124C167 120.686 169.686 118 173 118C176.314 118 179 120.686 179 124V132H197C197 129.239 199.239 127 202 127C204.761 127 207 129.239 207 132H225V126C225 121.582 228.582 118 233 118H233.875C233.917 118 233.958 118 234 118.001V231ZM79 124V132H85V124C85 122.343 83.6569 121 82 121C80.3431 121 79 122.343 79 124ZM231 156V218H229V188.346C229 181.443 223.404 175.846 216.5 175.846C209.596 175.846 204 181.443 204 188.346V218H201V188.346C201 181.443 195.404 175.846 188.5 175.846C181.596 175.846 176 181.443 176 188.346V218H168V188.346C168 181.443 162.404 175.846 155.5 175.846C148.596 175.846 143 181.443 143 188.346V218H140V188.346C140 181.443 134.404 175.846 127.5 175.846C120.596 175.846 115 181.443 115 188.346V218H112V188.346C112 181.443 106.404 175.846 99.5 175.846C92.5964 175.846 87 181.443 87 188.346V218H79V188.346C79 181.443 73.4036 175.846 66.5 175.846C59.5964 175.846 54 181.443 54 188.346V218H51V188.346C51 181.443 45.4036 175.846 38.5 175.846C31.5964 175.846 26 181.443 26 188.346V218H24V156H231ZM231 132V121.416C229.234 122.188 228 123.95 228 126V132H231ZM231 153V135.231H228V153H231ZM27 126C27 123.95 25.7659 122.188 24 121.416V132H27V126ZM24 153V135.231H27V153H24ZM179 135H197V153H179V135ZM76 135H58V153H76V135ZM123 153H88V135H123V153ZM146 206V205H165V206H146ZM146 202V201H165V202H146ZM146 188.346V198H165V188.346C165 183.099 160.747 178.846 155.5 178.846C150.253 178.846 146 183.099 146 188.346ZM118 205V206H137V205H118ZM137 198V188.346C137 183.099 132.747 178.846 127.5 178.846C122.253 178.846 118 183.099 118 188.346V198H137ZM118 201V202H137V201H118ZM90 206V205H109V206H90ZM90 202V201H109V202H90ZM90 188.346V198H109V188.346C109 183.099 104.747 178.846 99.5 178.846C94.2533 178.846 90 183.099 90 188.346ZM146 209V210H165V209H146ZM118 210V209H137V210H118ZM90 209V210H109V209H90ZM146 214V213H165V214H146ZM118 213V214H137V213H118ZM90 214V213H109V214H90ZM146 217V218H165V217H146ZM118 218V217H137V218H118ZM145 221H138V229H145V221ZM163 222V221H148V222H163ZM166 229H179V221H166V229ZM163 226V225H148V226H163ZM135 225V226H120V225H135ZM135 221V222H120V221H135ZM117 221V229H110V221H117ZM89 221H76V229H89V221ZM107 222V221H92V222H107ZM107 226V225H92V226H107ZM109 217V218H90V217H109ZM167 135H132V153H167V135ZM176 124V132H170V124C170 122.343 171.343 121 173 121C174.657 121 176 122.343 176 124ZM48 153V135H30V153H48ZM53 130C54.1046 130 55 130.895 55 132H51C51 130.895 51.8954 130 53 130ZM207 135H225V153H207V135ZM204 132C204 130.895 203.105 130 202 130C200.895 130 200 130.895 200 132H204ZM126 131.5V132H129V131.5C129 130.672 128.328 130 127.5 130C126.672 130 126 130.672 126 131.5ZM176 135V153H170V135H176ZM79 153H85V135H79V153ZM204 153H200V135H204V153ZM55 153V135H51V153H55ZM129 153H126V135H129V153ZM56 229V221H49V229H56ZM199 229H206V221H199V229ZM28 229V221H24V229H28ZM227 229H231V221H227V229Z" fill="black"/>
</svg>
