<svg width="256" height="256" viewBox="0 0 256 256" fill="none" xmlns="http://www.w3.org/2000/svg">
<path fill-rule="evenodd" clip-rule="evenodd" d="M52.75 50C53.4404 50 54 50.4477 54 51L54 193C54 193.552 53.4403 194 52.75 194H30.25C29.5596 194 29 193.552 29 193L29 51C29 50.4477 29.5596 50 30.25 50L52.75 50ZM32.75 53H50.25L50.25 191H32.75L32.75 53Z" fill="black"/>
<path fill-rule="evenodd" clip-rule="evenodd" d="M40.5 24C39.1193 24 38 25.1193 38 26.5V39L25.0294 39C24.4609 39 24 39.4477 24 40L24 46L24 46.0043L24 229H21V232H235V229H232V151C232 150.448 231.539 150 230.971 150L163 150V77C163 76.4477 162.552 76 162 76H82V61C82 60.4477 81.5523 60 81 60H59V40C59 39.4477 58.5391 39 57.9706 39H41V31.5H46C47.3807 31.5 48.5 30.3807 48.5 29V26.5C48.5 25.1193 47.3807 24 46 24H40.5ZM229 162L163 162V172H229V162ZM229 184H163V191H229V184ZM229 203H163V229H164V213C164 208.582 167.582 205 172 205H186C190.418 205 194 208.582 194 213V229H197V213C197 208.582 200.582 205 205 205H219C223.418 205 227 208.582 227 213V229H229V203ZM32 229H27.2813L27.2813 47L55.7188 47L55.7187 229H52V213C52 208.582 48.4183 205 44 205H40C35.5817 205 32 208.582 32 213V229ZM79 229H59V213C59 210.239 61.2386 208 64 208H74C76.7614 208 79 210.239 79 213V229ZM88 229H82V203H88V229ZM115 229H91V213C91 210.239 93.2386 208 96 208H110C112.761 208 115 210.239 115 213V229ZM124 229H118V203H124V229ZM151 229H127V213C127 210.239 129.239 208 132 208H146C148.761 208 151 210.239 151 213V229ZM160 229H154V203H160V229ZM49 213V229H35V213C35 210.239 37.2386 208 40 208H44C46.7614 208 49 210.239 49 213ZM224 213V229H200V213C200 210.239 202.239 208 205 208H219C221.761 208 224 210.239 224 213ZM191 213V229H167V213C167 210.239 169.239 208 172 208H186C188.761 208 191 210.239 191 213ZM45.5 28.5H41V27H45.5V28.5ZM55.9118 42L27.0882 42V44L55.9118 44V42ZM146 205C147.892 205 149.63 205.657 151 206.755V203L127 203V206.755C128.37 205.657 130.108 205 132 205H146ZM79 206.755V203H59V206.755C60.3696 205.657 62.1081 205 64 205H74C75.8919 205 77.6304 205.657 79 206.755ZM110 205C111.892 205 113.63 205.657 115 206.755V203H91V206.755C92.3696 205.657 94.1081 205 96 205H110ZM79 191H59V184H79V191ZM88 191H82V136H88V191ZM228.948 194V200L59.052 200V194L228.948 194ZM91 191H115V184H91V191ZM124 191H118V112H124V150.996L124 151V161L124 161.004V191ZM151 191L127 191V184H151V191ZM160 191H154V162H160V191ZM160 150V84H154V150H160ZM151 150V136H127V150H151ZM127 162H151V172H127V162ZM228.914 159V153L127.086 153V159L228.914 159ZM79 181V175H59V181H79ZM59 172H79V162H59V172ZM79 153V159H59V153H79ZM79 150H59V136H79V150ZM127 175V181H151V175H127ZM91 181V175H115V181H91ZM91 172H115V162H91V172ZM115 159V153H91V159H115ZM91 150H115V136H91V150ZM127 133V127H151V133H127ZM127 124H151V112H127V124ZM115 133V127L59 127V133L115 133ZM59 124H79V112H59V124ZM82 124H88V84H82V124ZM91 124H115V112H91V124ZM91 109V103L151 103V109L91 109ZM91 100H115V79H91V100ZM124 100H118V84H124V100ZM151 100H127V79H151V100ZM160 81V79H154V81H160ZM124 79V81H118V79H124ZM79 79H59V100H79V79ZM88 81V79H82V81H88ZM79 63V76H59V63H79ZM79 109V103H59V109H79ZM228.87 181V175H163.13V181H228.87Z" fill="black"/>
</svg>
