<svg width="256" height="256" viewBox="0 0 256 256" fill="none" xmlns="http://www.w3.org/2000/svg">
<path d="M127.968 26.089L140.931 36.3575L139.069 38.7092L127.961 29.9111L100.927 51.1789L99.0725 48.8211L127.968 26.089Z" fill="black"/>
<path fill-rule="evenodd" clip-rule="evenodd" d="M127.389 19.4711C127.749 19.1935 128.251 19.1935 128.611 19.4711L179.86 59H187.405L193.414 53.3447C195.13 51.7297 197.923 53.1682 197.604 55.503L196.541 63.3016C196.453 63.9447 196.119 64.5285 195.608 64.9296L189.199 69.9658C188.758 70.3119 188.214 70.5 187.654 70.5H176V113.5H176.027C176.775 113.5 177.484 113.835 177.959 114.413L187.816 126.413C188.019 126.66 188.164 126.925 188.258 127.198L193.414 122.345C195.13 120.73 197.923 122.168 197.604 124.503L196.541 132.302C196.453 132.945 196.119 133.529 195.608 133.93L189.199 138.966C188.758 139.312 188.214 139.5 187.654 139.5H187V164.424L198.441 176.263C198.873 176.71 199.094 177.243 199.139 177.777L206.062 172.387C207.857 170.989 210.434 172.521 210.064 174.766L208.794 182.475C208.679 183.169 208.278 183.782 207.689 184.165L200.103 189.096C199.697 189.36 199.224 189.5 198.74 189.5H188V233.5H200V236.5H56V233.5H69V189.5H59.2598C58.7761 189.5 58.3029 189.36 57.8973 189.096L50.3107 184.165C49.7215 183.782 49.3207 183.169 49.2064 182.475L47.9357 174.766C47.5656 172.521 50.143 170.989 51.9383 172.387L58.8607 177.777C58.9055 177.243 59.1266 176.71 59.5593 176.263L70.0752 165.381C70.0267 165.264 70 165.135 70 165V139.5H68.8459C68.2857 139.5 67.7418 139.312 67.3013 138.966L60.8916 133.93C60.3812 133.529 60.0468 132.945 59.9591 132.302L58.8956 124.503C58.5772 122.168 61.3702 120.73 63.0861 122.345L68.6454 127.577C68.7144 127.172 68.8883 126.773 69.1837 126.413L79.0409 114.413C79.5157 113.835 80.2245 113.5 80.9727 113.5H81V70.5H68.8459C68.2857 70.5 67.7418 70.3119 67.3013 69.9658L60.8916 64.9296C60.3812 64.5285 60.0468 63.9447 59.9591 63.3016L58.8956 55.503C58.5772 53.1682 61.3702 51.7297 63.0861 53.3447L69.0949 59H76.1398L127.389 19.4711ZM128 22.7887L174.624 58.75H81.376L128 22.7887ZM80 233.5H123V197.5H92V194.5H123V189.5H80V233.5ZM134 233.5H177V189.5H134V194.5H165.5V197.5H134V233.5ZM194.441 56.4978L189.317 61.3205C188.853 61.757 188.24 62 187.603 62H68.8966C68.2598 62 67.6469 61.757 67.1832 61.3205L62.0591 56.4978L62.9042 62.6957L69.0188 67.5H187.481L193.596 62.6957L194.441 56.4978ZM176 139.5V147H145V150H176V163.5H134V139.5H176ZM123 139.5V163.5H81V150H120V147H81V139.5H123ZM92 113.5H165V78.5H118V75.5H165V70.5H92V75.5H102V78.5H92V113.5ZM84 113V71H89V113H84ZM73 163V140H78V163H73ZM72 190V233H77V190H72ZM126 163V140H131V163H126ZM126 190V233H131V190H126ZM179 163V140H184V163H179ZM180 190V233H185V190H180ZM168 113V71H173V113H168ZM189.317 130.321L194.441 125.498L193.596 131.696L187.481 136.5H69.0188L62.9042 131.696L62.0591 125.498L67.1832 130.321C67.6469 130.757 68.2598 131 68.8966 131H187.603C188.24 131 188.853 130.757 189.317 130.321ZM206.896 175.539L200.229 180.73C199.79 181.072 199.25 181.258 198.693 181.258H59.3068C58.7504 181.258 58.2099 181.072 57.7709 180.73L51.1036 175.539L52.1306 181.77L59.408 186.5H198.592L205.869 181.77L206.896 175.539ZM72.1733 127.5L81.209 116.5H90.6234L83.8541 127.5H72.1733ZM172.812 127.5H184.827L175.791 116.5H166.684L173.277 127.214L172.812 127.5ZM104.446 127.5H87.3767L94.1459 116.5H108.406L104.446 127.5ZM152.734 127.5H169.931L163.162 116.5H148.774L152.734 127.5ZM149.546 127.5L145.589 116.508L145.611 116.5H110L111.411 117.008L107.634 127.5H149.546ZM73.1658 166.5L62.5356 177.5H79.8541L86.6234 166.5H73.1658ZM195.464 177.5H174.812L175.277 177.214L168.684 166.5H184.834L195.464 177.5ZM83.3767 177.5H105.446L109.406 166.5H90.1459L83.3767 177.5ZM171.931 177.5H149.734L145.774 166.5H165.162L171.931 177.5ZM142.589 166.508L146.546 177.5H108.634L112.411 167.008L111 166.5H142.611L142.589 166.508Z" fill="black"/>
</svg>
