<svg width="256" height="256" viewBox="0 0 256 256" fill="none" xmlns="http://www.w3.org/2000/svg">
<path fill-rule="evenodd" clip-rule="evenodd" d="M120 167H116V209H120V167ZM123 165C123 164.448 122.552 164 122 164H114C113.448 164 113 164.448 113 165V211C113 211.552 113.448 212 114 212H122C122.552 212 123 211.552 123 211V165Z" fill="black"/>
<path fill-rule="evenodd" clip-rule="evenodd" d="M155 167H151V209H155V167ZM158 165C158 164.448 157.552 164 157 164H149C148.448 164 148 164.448 148 165V211C148 211.552 148.448 212 149 212H157C157.552 212 158 211.552 158 211V165Z" fill="black"/>
<path fill-rule="evenodd" clip-rule="evenodd" d="M208 150H62L62 153L208 153V150ZM211 148C211 147.448 210.552 147 210 147L60 147C59.4477 147 59 147.448 59 148L59 155C59 155.552 59.4477 156 60 156L210 156C210.552 156 211 155.552 211 155V148Z" fill="black"/>
<path fill-rule="evenodd" clip-rule="evenodd" d="M205 32L65 32L65 147L205 147V32ZM208 30C208 29.4477 207.552 29 207 29L63 29C62.4477 29 62 29.4477 62 30L62 149C62 149.552 62.4477 150 63 150L207 150C207.552 150 208 149.552 208 149V30Z" fill="black"/>
<path fill-rule="evenodd" clip-rule="evenodd" d="M194 167H173V197H194V167ZM197 165C197 164.448 196.552 164 196 164H171C170.448 164 170 164.448 170 165V199C170 199.552 170.448 200 171 200H196C196.552 200 197 199.552 197 199V165Z" fill="black"/>
<path fill-rule="evenodd" clip-rule="evenodd" d="M98 167H76L76 197H98V167ZM101 165C101 164.448 100.552 164 100 164H74C73.4477 164 73 164.448 73 165L73 199C73 199.552 73.4477 200 74 200H100C100.552 200 101 199.552 101 199V165Z" fill="black"/>
<path fill-rule="evenodd" clip-rule="evenodd" d="M98 222H76V229H98V222ZM101 220C101 219.448 100.552 219 100 219H74C73.4477 219 73 219.448 73 220V231C73 231.552 73.4477 232 74 232H100C100.552 232 101 231.552 101 231V220Z" fill="black"/>
<path fill-rule="evenodd" clip-rule="evenodd" d="M195 222H173V229H195V222ZM198 220C198 219.448 197.552 219 197 219H171C170.448 219 170 219.448 170 220V231C170 231.552 170.448 232 171 232H197C197.552 232 198 231.552 198 231V220Z" fill="black"/>
<path fill-rule="evenodd" clip-rule="evenodd" d="M148 167H123V174H148V167ZM151 165C151 164.448 150.552 164 150 164H121C120.448 164 120 164.448 120 165V176C120 176.552 120.448 177 121 177H150C150.552 177 151 176.552 151 176V165Z" fill="black"/>
<path fill-rule="evenodd" clip-rule="evenodd" d="M205 141L65 141L65 147L205 147V141ZM208 139C208 138.448 207.552 138 207 138L63 138C62.4477 138 62 138.448 62 139L62 149C62 149.552 62.4477 150 63 150L207 150C207.552 150 208 149.552 208 149V139Z" fill="black"/>
<path fill-rule="evenodd" clip-rule="evenodd" d="M205 23L65 23V29L205 29V23ZM208 21C208 20.4477 207.552 20 207 20L63 20C62.4477 20 62 20.4477 62 21L62 31C62 31.5523 62.4477 32 63 32L207 32C207.552 32 208 31.5523 208 31V21Z" fill="black"/>
<path fill-rule="evenodd" clip-rule="evenodd" d="M148 177H123V209H148V177ZM151 175C151 174.448 150.552 174 150 174H121C120.448 174 120 174.448 120 175V211C120 211.552 120.448 212 121 212H150C150.552 212 151 211.552 151 211V175Z" fill="black"/>
<path fill-rule="evenodd" clip-rule="evenodd" d="M148 177H137V209H148V177ZM151 175C151 174.448 150.552 174 150 174H135C134.448 174 134 174.448 134 175V211C134 211.552 134.448 212 135 212H150C150.552 212 151 211.552 151 211V175Z" fill="black"/>
<path fill-rule="evenodd" clip-rule="evenodd" d="M101 108H76L76 133H101V108ZM104 106C104 105.448 103.552 105 103 105H74C73.4477 105 73 105.448 73 106L73 135C73 135.552 73.4477 136 74 136H103C103.552 136 104 135.552 104 135V106Z" fill="black"/>
<path fill-rule="evenodd" clip-rule="evenodd" d="M101 70L76 70L76 94H101V70ZM104 68C104 67.4477 103.552 67 103 67L74 67C73.4477 67 73 67.4477 73 68L73 96C73 96.5523 73.4477 97 74 97H103C103.552 97 104 96.5523 104 96V68Z" fill="black"/>
<path fill-rule="evenodd" clip-rule="evenodd" d="M101 44H76L76 56L101 56V44ZM104 42C104 41.4477 103.552 41 103 41H74C73.4477 41 73 41.4477 73 42L73 58C73 58.5523 73.4477 59 74 59L103 59C103.552 59 104 58.5523 104 58V42Z" fill="black"/>
<path fill-rule="evenodd" clip-rule="evenodd" d="M152 108H135V133H152V108ZM155 106C155 105.448 154.552 105 154 105H133C132.448 105 132 105.448 132 106V135C132 135.552 132.448 136 133 136H154C154.552 136 155 135.552 155 135V106Z" fill="black"/>
<path fill-rule="evenodd" clip-rule="evenodd" d="M152 70L135 70V94H152V70ZM155 68C155 67.4477 154.552 67 154 67L133 67C132.448 67 132 67.4477 132 68V96C132 96.5523 132.448 97 133 97H154C154.552 97 155 96.5523 155 96V68Z" fill="black"/>
<path fill-rule="evenodd" clip-rule="evenodd" d="M152 44H135V56H152V44ZM155 42C155 41.4477 154.552 41 154 41H133C132.448 41 132 41.4477 132 42V58C132 58.5523 132.448 59 133 59H154C154.552 59 155 58.5523 155 58V42Z" fill="black"/>
<path fill-rule="evenodd" clip-rule="evenodd" d="M194 108H177V133H194V108ZM197 106C197 105.448 196.552 105 196 105H175C174.448 105 174 105.448 174 106V135C174 135.552 174.448 136 175 136H196C196.552 136 197 135.552 197 135V106Z" fill="black"/>
<path fill-rule="evenodd" clip-rule="evenodd" d="M194 70L177 70V94H194V70ZM197 68C197 67.4477 196.552 67 196 67L175 67C174.448 67 174 67.4477 174 68V96C174 96.5523 174.448 97 175 97H196C196.552 97 197 96.5523 197 96V68Z" fill="black"/>
<path fill-rule="evenodd" clip-rule="evenodd" d="M194 44H177V56H194V44ZM197 42C197 41.4477 196.552 41 196 41H175C174.448 41 174 41.4477 174 42V58C174 58.5523 174.448 59 175 59H196C196.552 59 197 58.5523 197 58V42Z" fill="black"/>
<path fill-rule="evenodd" clip-rule="evenodd" d="M155 214V212L116 212V214H155ZM157 217C157.552 217 158 216.552 158 216V210C158 209.448 157.552 209 157 209L114 209C113.448 209 113 209.448 113 210V216C113 216.552 113.448 217 114 217H157Z" fill="black"/>
<path fill-rule="evenodd" clip-rule="evenodd" d="M155 219V217L116 217V219H155ZM157 222C157.552 222 158 221.552 158 221V215C158 214.448 157.552 214 157 214L114 214C113.448 214 113 214.448 113 215V221C113 221.552 113.448 222 114 222H157Z" fill="black"/>
<path fill-rule="evenodd" clip-rule="evenodd" d="M113 214V212L65 212L65 214H113ZM115 217C115.552 217 116 216.552 116 216V210C116 209.448 115.552 209 115 209L63 209C62.4477 209 62 209.448 62 210L62 216C62 216.552 62.4477 217 63 217H115Z" fill="black"/>
<path fill-rule="evenodd" clip-rule="evenodd" d="M205 214V212L158 212V214H205ZM207 217C207.552 217 208 216.552 208 216V210C208 209.448 207.552 209 207 209L156 209C155.448 209 155 209.448 155 210V216C155 216.552 155.448 217 156 217H207Z" fill="black"/>
<path fill-rule="evenodd" clip-rule="evenodd" d="M155 224V222L116 222V224H155ZM157 227C157.552 227 158 226.552 158 226V220C158 219.448 157.552 219 157 219L114 219C113.448 219 113 219.448 113 220V226C113 226.552 113.448 227 114 227H157Z" fill="black"/>
<path fill-rule="evenodd" clip-rule="evenodd" d="M155 229V227L116 227V229H155ZM157 232C157.552 232 158 231.552 158 231V225C158 224.448 157.552 224 157 224L114 224C113.448 224 113 224.448 113 225V231C113 231.552 113.448 232 114 232H157Z" fill="black"/>
<path fill-rule="evenodd" clip-rule="evenodd" d="M149.779 164L138.065 160.035C136.401 159.472 134.599 159.472 132.935 160.035L121.221 164H149.779ZM139.027 157.194C136.739 156.419 134.261 156.419 131.973 157.194L114.506 163.106C112.362 163.831 112.884 167 115.147 167H155.853C158.116 167 158.638 163.831 156.494 163.106L139.027 157.194Z" fill="black"/>
<path fill-rule="evenodd" clip-rule="evenodd" d="M216 232.5H54V229.5H216V232.5Z" fill="black"/>
<path fill-rule="evenodd" clip-rule="evenodd" d="M70.5 102.5H106.5V109H103.5V105.5H73.5V110H70.5V102.5Z" fill="black"/>
<path fill-rule="evenodd" clip-rule="evenodd" d="M130.5 103.5H156.5V110H153.5V106.5H133.5V111H130.5V103.5Z" fill="black"/>
<path fill-rule="evenodd" clip-rule="evenodd" d="M172.5 102.5H198.5V109H195.5V105.5H175.5V110H172.5V102.5Z" fill="black"/>
<path fill-rule="evenodd" clip-rule="evenodd" d="M130.5 65.5H156.5V72H153.5V68.5H133.5V73H130.5V65.5Z" fill="black"/>
<path fill-rule="evenodd" clip-rule="evenodd" d="M172.5 65.5H198.5V72H195.5V68.5H175.5V73H172.5V65.5Z" fill="black"/>
<path fill-rule="evenodd" clip-rule="evenodd" d="M70.5 65.5H106.5V72H103.5V68.5H73.5V73H70.5V65.5Z" fill="black"/>
<path fill-rule="evenodd" clip-rule="evenodd" d="M62 230.5V156H65V230.5H62Z" fill="black"/>
<path fill-rule="evenodd" clip-rule="evenodd" d="M205 230V156H208V230H205Z" fill="black"/>
</svg>
