<svg width="256" height="256" viewBox="0 0 256 256" fill="none" xmlns="http://www.w3.org/2000/svg">
<path d="M127.876 44.4954L73.794 76.8349H66L127.363 40.1417C127.679 39.9528 128.073 39.9528 128.389 40.1417L189.752 76.8349H181.958L127.876 44.4954Z" fill="black"/>
<path fill-rule="evenodd" clip-rule="evenodd" d="M28.7723 94H36V106C36 106.552 36.4477 107 37 107H40V189H37C36.4477 189 36 189.448 36 190V202H28C27.4477 202 27 202.448 27 203V216H21C20.4477 216 20 216.448 20 217V231C20 231.552 20.4477 232 21 232H236C236.552 232 237 231.552 237 231V217C237 216.448 236.552 216 236 216H230V203C230 202.448 229.552 202 229 202H221V190C221 189.448 220.552 189 220 189H216V107H220C220.552 107 221 106.552 221 106V94H228.228C233.331 94 235.155 87.2542 230.748 84.6818L131.021 26.4712C129.463 25.5622 127.537 25.5622 125.98 26.4712L26.2518 84.6818C21.8446 87.2542 23.6693 94 28.7723 94ZM229.236 87.2727L129.508 29.0621C128.885 28.6985 128.115 28.6985 127.492 29.0621L27.7641 87.2727C26.0012 88.3017 26.7311 91 28.7723 91H228.228C230.269 91 230.999 88.3017 229.236 87.2727ZM39 104V94H63V104H39ZM66 106V94H88V106C88 106.552 88.4477 107 89 107H92V114H61V107H65C65.5523 107 66 106.552 66 106ZM111 114H95V107H111V114ZM114 114V107H117C117.552 107 118 106.552 118 106V94H139V106C139 106.552 139.448 107 140 107H143V114H114ZM121 117V152H61V117H121ZM124 154.5V155H61V164.5H195V154.5H124ZM61 179V167.5H195V179H61ZM195 151.5V141.5H124V151.5H195ZM124 138.5H195V128.5H124V138.5ZM124 125.5H195V117H124V125.5ZM198 189H213V107H198V189ZM58 189H43V107H58V189ZM146 114H162V107H146V114ZM165 114H195V107H192C191.448 107 191 106.552 191 106V94H169V106C169 106.552 168.552 107 168 107H165V114ZM195 182H165V189H168C168.552 189 169 189.448 169 190V202H191V190C191 189.448 191.448 189 192 189H195V182ZM162 182H146V189H162V182ZM143 182H114V189H117C117.552 189 118 189.448 118 190V202H139V190C139 189.448 139.448 189 140 189H143V182ZM111 182H95V189H111V182ZM92 182H61V189H65C65.5523 189 66 189.448 66 190V202H88V190C88 189.448 88.4477 189 89 189H92V182ZM91 104V94H115V104H91ZM142 104V94H166V104H142ZM194 104V94H218V104H194ZM218 202H194V192H218V202ZM227 205V216H30V205H227ZM166 202H142V192H166V202ZM115 202H91V192H115V202ZM63 192V202H39V192H63ZM23 219V229H234V219H23Z" fill="black"/>
</svg>
