<svg width="256" height="256" viewBox="0 0 256 256" fill="none" xmlns="http://www.w3.org/2000/svg">
<path d="M144 52.7662C144 51.9889 144.848 51.5088 145.514 51.9087L148.514 53.7087C148.816 53.8894 149 54.2149 149 54.5662V74.3967C149 75.1365 148.225 75.6202 147.56 75.2948L144.56 73.8254C144.217 73.6575 144 73.309 144 72.9273V52.7662Z" fill="black"/>
<path d="M158.492 81.6106C159.159 82.0038 160 81.5232 160 80.7492V61.0202C160 60.6662 159.813 60.3386 159.508 60.1588L156.508 58.3894C155.841 57.9963 155 58.4768 155 59.2508V78.9798C155 79.3338 155.187 79.6614 155.492 79.8412L158.492 81.6106Z" fill="black"/>
<path d="M168.486 87.0913L165.486 85.2913C165.184 85.1106 165 84.7851 165 84.4338V65.2508C165 64.4768 165.841 63.9962 166.508 64.3894L169.508 66.1588C169.813 66.3386 170 66.6662 170 67.0201V86.2338C170 87.0111 169.152 87.4912 168.486 87.0913Z" fill="black"/>
<path d="M148.447 93.2236C148.786 93.393 149 93.7393 149 94.118V102.316C149 103.075 148.188 103.557 147.522 103.194L144.522 101.56C144.2 101.385 144 101.048 144 100.682V92.618C144 91.8746 144.782 91.3912 145.447 91.7236L148.447 93.2236Z" fill="black"/>
<path d="M160 101.118C160 100.739 159.786 100.393 159.447 100.224L156.447 98.7236C155.782 98.3912 155 98.8746 155 99.618V107.682C155 108.048 155.2 108.385 155.522 108.56L158.522 110.194C159.188 110.557 160 110.075 160 109.316V101.118Z" fill="black"/>
<path d="M169.447 106.224C169.786 106.393 170 106.739 170 107.118V115.316C170 116.075 169.188 116.557 168.522 116.194L165.522 114.56C165.2 114.385 165 114.048 165 113.682V105.618C165 104.875 165.782 104.391 166.447 104.724L169.447 106.224Z" fill="black"/>
<path fill-rule="evenodd" clip-rule="evenodd" d="M125 47C125 46.4477 125.448 46 126 46H131C131.552 46 132 46.4477 132 47V67C132 67.5523 131.552 68 131 68H126C125.448 68 125 67.5523 125 67V47ZM128 65V49H129V65H128Z" fill="black"/>
<path fill-rule="evenodd" clip-rule="evenodd" d="M125 86C125 85.4477 125.448 85 126 85H131C131.552 85 132 85.4477 132 86V96C132 96.5523 131.552 97 131 97H126C125.448 97 125 96.5523 125 96V86ZM128 94V88H129V94H128Z" fill="black"/>
<path fill-rule="evenodd" clip-rule="evenodd" d="M126 110C125.448 110 125 110.448 125 111V121C125 121.552 125.448 122 126 122H131C131.552 122 132 121.552 132 121V111C132 110.448 131.552 110 131 110H126ZM128 113V119H129V113H128Z" fill="black"/>
<path fill-rule="evenodd" clip-rule="evenodd" d="M125 129C125 128.448 125.448 128 126 128H131C131.552 128 132 128.448 132 129V139C132 139.552 131.552 140 131 140H126C125.448 140 125 139.552 125 139V129ZM128 137V131H129V137H128Z" fill="black"/>
<path fill-rule="evenodd" clip-rule="evenodd" d="M126 146C125.448 146 125 146.448 125 147V157C125 157.552 125.448 158 126 158H131C131.552 158 132 157.552 132 157V147C132 146.448 131.552 146 131 146H126ZM128 149V155H129V149H128Z" fill="black"/>
<path fill-rule="evenodd" clip-rule="evenodd" d="M125 165C125 164.448 125.448 164 126 164H131C131.552 164 132 164.448 132 165V175C132 175.552 131.552 176 131 176H126C125.448 176 125 175.552 125 175V165ZM128 173V167H129V173H128Z" fill="black"/>
<path fill-rule="evenodd" clip-rule="evenodd" d="M126 182C125.448 182 125 182.448 125 183V193C125 193.552 125.448 194 126 194H131C131.552 194 132 193.552 132 193V183C132 182.448 131.552 182 131 182H126ZM128 185V191H129V185H128Z" fill="black"/>
<path fill-rule="evenodd" clip-rule="evenodd" d="M125 201C125 200.448 125.448 200 126 200H131C131.552 200 132 200.448 132 201V211C132 211.552 131.552 212 131 212H126C125.448 212 125 211.552 125 211V201ZM128 209V203H129V209H128Z" fill="black"/>
<path d="M149 117.118C149 116.739 148.786 116.393 148.447 116.224L145.447 114.724C144.782 114.391 144 114.875 144 115.618V123.682C144 124.048 144.2 124.385 144.522 124.56L147.522 126.194C148.188 126.557 149 126.075 149 125.316V117.118Z" fill="black"/>
<path d="M159.447 122.224C159.786 122.393 160 122.739 160 123.118V131.316C160 132.075 159.188 132.557 158.522 132.194L155.522 130.56C155.2 130.385 155 130.048 155 129.682V121.618C155 120.875 155.782 120.391 156.447 120.724L159.447 122.224Z" fill="black"/>
<path d="M170 128.118C170 127.739 169.786 127.393 169.447 127.224L166.447 125.724C165.782 125.391 165 125.875 165 126.618V134.682C165 135.048 165.2 135.385 165.522 135.56L168.522 137.194C169.188 137.557 170 137.075 170 136.316V128.118Z" fill="black"/>
<path d="M148.447 152.224C148.786 152.393 149 152.739 149 153.118V161.316C149 162.075 148.188 162.557 147.522 162.194L144.522 160.56C144.2 160.385 144 160.048 144 159.682V151.618C144 150.875 144.782 150.391 145.447 150.724L148.447 152.224Z" fill="black"/>
<path d="M160 159.118C160 158.739 159.786 158.393 159.447 158.224L156.447 156.724C155.782 156.391 155 156.875 155 157.618V165.682C155 166.048 155.2 166.385 155.522 166.56L158.522 168.194C159.188 168.557 160 168.075 160 167.316V159.118Z" fill="black"/>
<path d="M169.447 163.224C169.786 163.393 170 163.739 170 164.118V172.316C170 173.075 169.188 173.557 168.522 173.194L165.522 171.56C165.2 171.385 165 171.048 165 170.682V162.618C165 161.875 165.782 161.391 166.447 161.724L169.447 163.224Z" fill="black"/>
<path d="M149 135.118C149 134.739 148.786 134.393 148.447 134.224L145.447 132.724C144.782 132.391 144 132.875 144 133.618V141.682C144 142.048 144.2 142.385 144.522 142.56L147.522 144.194C148.188 144.557 149 144.075 149 143.316V135.118Z" fill="black"/>
<path d="M159.447 140.224C159.786 140.393 160 140.739 160 141.118V149.316C160 150.075 159.188 150.557 158.522 150.194L155.522 148.56C155.2 148.385 155 148.048 155 147.682V139.618C155 138.875 155.782 138.391 156.447 138.724L159.447 140.224Z" fill="black"/>
<path d="M170 146.118C170 145.739 169.786 145.393 169.447 145.224L166.447 143.724C165.782 143.391 165 143.875 165 144.618V152.682C165 153.048 165.2 153.385 165.522 153.56L168.522 155.194C169.188 155.557 170 155.075 170 154.316V146.118Z" fill="black"/>
<path d="M148.447 170.224C148.786 170.393 149 170.739 149 171.118V179.316C149 180.075 148.188 180.557 147.522 180.194L144.522 178.56C144.2 178.385 144 178.048 144 177.682V169.618C144 168.875 144.782 168.391 145.447 168.724L148.447 170.224Z" fill="black"/>
<path d="M160 177.118C160 176.739 159.786 176.393 159.447 176.224L156.447 174.724C155.782 174.391 155 174.875 155 175.618V183.682C155 184.048 155.2 184.385 155.522 184.56L158.522 186.194C159.188 186.557 160 186.075 160 185.316V177.118Z" fill="black"/>
<path d="M169.447 181.224C169.786 181.393 170 181.739 170 182.118V190.316C170 191.075 169.188 191.557 168.522 191.194L165.522 189.56C165.2 189.385 165 189.048 165 188.682V180.618C165 179.875 165.782 179.391 166.447 179.724L169.447 181.224Z" fill="black"/>
<path d="M149 189.118C149 188.739 148.786 188.393 148.447 188.224L145.447 186.724C144.782 186.391 144 186.875 144 187.618V195.682C144 196.048 144.2 196.385 144.522 196.56L147.522 198.194C148.188 198.557 149 198.075 149 197.316V189.118Z" fill="black"/>
<path d="M148.447 205.224C148.786 205.393 149 205.739 149 206.118V214.316C149 215.075 148.188 215.557 147.522 215.194L144.522 213.56C144.2 213.385 144 213.048 144 212.682V204.618C144 203.875 144.782 203.391 145.447 203.724L148.447 205.224Z" fill="black"/>
<path d="M160 195.118C160 194.739 159.786 194.393 159.447 194.224L156.447 192.724C155.782 192.391 155 192.875 155 193.618V201.682C155 202.048 155.2 202.385 155.522 202.56L158.522 204.194C159.188 204.557 160 204.075 160 203.316V195.118Z" fill="black"/>
<path d="M159.447 211.224C159.786 211.393 160 211.739 160 212.118V220.316C160 221.075 159.188 221.557 158.522 221.194L155.522 219.56C155.2 219.385 155 219.048 155 218.682V210.618C155 209.875 155.782 209.391 156.447 209.724L159.447 211.224Z" fill="black"/>
<path d="M170 200.118C170 199.739 169.786 199.393 169.447 199.224L166.447 197.724C165.782 197.391 165 197.875 165 198.618V206.682C165 207.048 165.2 207.385 165.522 207.56L168.522 209.194C169.188 209.557 170 209.075 170 208.316V200.118Z" fill="black"/>
<path d="M169.447 216.224C169.786 216.393 170 216.739 170 217.118V225.316C170 226.075 169.188 226.557 168.522 226.194L165.522 224.56C165.2 224.385 165 224.048 165 223.682V215.618C165 214.875 165.782 214.391 166.447 214.724L169.447 216.224Z" fill="black"/>
<path d="M111.486 51.9087C112.152 51.5088 113 51.9889 113 52.7662V72.9273C113 73.309 112.783 73.6575 112.44 73.8254L109.44 75.2948C108.775 75.6202 108 75.1365 108 74.3967V54.5662C108 54.2149 108.184 53.8894 108.486 53.7087L111.486 51.9087Z" fill="black"/>
<path d="M97 80.7492C97 81.5232 97.8414 82.0038 98.508 81.6106L101.508 79.8412C101.813 79.6614 102 79.3338 102 78.9798V59.2508C102 58.4768 101.159 57.9963 100.492 58.3894L97.492 60.1588C97.1871 60.3386 97 60.6662 97 61.0202V80.7492Z" fill="black"/>
<path d="M88.5145 87.0913C87.848 87.4912 87 87.0111 87 86.2338V67.0201C87 66.6662 87.1871 66.3386 87.492 66.1588L90.492 64.3894C91.1586 63.9962 92 64.4768 92 65.2508V84.4338C92 84.7851 91.8157 85.1106 91.5145 85.2913L88.5145 87.0913Z" fill="black"/>
<path d="M108 94.118C108 93.7393 108.214 93.393 108.553 93.2236L111.553 91.7236C112.218 91.3912 113 91.8746 113 92.618V100.682C113 101.048 112.8 101.385 112.478 101.56L109.478 103.194C108.812 103.557 108 103.075 108 102.316V94.118Z" fill="black"/>
<path d="M97.5528 100.224C97.214 100.393 97 100.739 97 101.118V109.316C97 110.075 97.8121 110.557 98.4785 110.194L101.478 108.56C101.8 108.385 102 108.048 102 107.682V99.618C102 98.8746 101.218 98.3912 100.553 98.7236L97.5528 100.224Z" fill="black"/>
<path d="M87 107.118C87 106.739 87.214 106.393 87.5528 106.224L90.5528 104.724C91.2177 104.391 92 104.875 92 105.618V113.682C92 114.048 91.7999 114.385 91.4785 114.56L88.4785 116.194C87.8121 116.557 87 116.075 87 115.316V107.118Z" fill="black"/>
<path d="M108.553 116.224C108.214 116.393 108 116.739 108 117.118V125.316C108 126.075 108.812 126.557 109.478 126.194L112.478 124.56C112.8 124.385 113 124.048 113 123.682V115.618C113 114.875 112.218 114.391 111.553 114.724L108.553 116.224Z" fill="black"/>
<path d="M97 123.118C97 122.739 97.214 122.393 97.5528 122.224L100.553 120.724C101.218 120.391 102 120.875 102 121.618V129.682C102 130.048 101.8 130.385 101.478 130.56L98.4785 132.194C97.8121 132.557 97 132.075 97 131.316V123.118Z" fill="black"/>
<path d="M87.5528 127.224C87.214 127.393 87 127.739 87 128.118V136.316C87 137.075 87.8121 137.557 88.4785 137.194L91.4785 135.56C91.7999 135.385 92 135.048 92 134.682V126.618C92 125.875 91.2177 125.391 90.5528 125.724L87.5528 127.224Z" fill="black"/>
<path d="M108 153.118C108 152.739 108.214 152.393 108.553 152.224L111.553 150.724C112.218 150.391 113 150.875 113 151.618V159.682C113 160.048 112.8 160.385 112.478 160.56L109.478 162.194C108.812 162.557 108 162.075 108 161.316V153.118Z" fill="black"/>
<path d="M97.5528 158.224C97.214 158.393 97 158.739 97 159.118V167.316C97 168.075 97.8121 168.557 98.4785 168.194L101.478 166.56C101.8 166.385 102 166.048 102 165.682V157.618C102 156.875 101.218 156.391 100.553 156.724L97.5528 158.224Z" fill="black"/>
<path d="M87 164.118C87 163.739 87.214 163.393 87.5528 163.224L90.5528 161.724C91.2177 161.391 92 161.875 92 162.618V170.682C92 171.048 91.7999 171.385 91.4785 171.56L88.4785 173.194C87.8121 173.557 87 173.075 87 172.316V164.118Z" fill="black"/>
<path d="M108.553 134.224C108.214 134.393 108 134.739 108 135.118V143.316C108 144.075 108.812 144.557 109.478 144.194L112.478 142.56C112.8 142.385 113 142.048 113 141.682V133.618C113 132.875 112.218 132.391 111.553 132.724L108.553 134.224Z" fill="black"/>
<path d="M97 141.118C97 140.739 97.214 140.393 97.5528 140.224L100.553 138.724C101.218 138.391 102 138.875 102 139.618V147.682C102 148.048 101.8 148.385 101.478 148.56L98.4785 150.194C97.8121 150.557 97 150.075 97 149.316V141.118Z" fill="black"/>
<path d="M87.5528 145.224C87.214 145.393 87 145.739 87 146.118V154.316C87 155.075 87.8121 155.557 88.4785 155.194L91.4785 153.56C91.7999 153.385 92 153.048 92 152.682V144.618C92 143.875 91.2177 143.391 90.5528 143.724L87.5528 145.224Z" fill="black"/>
<path d="M108 171.118C108 170.739 108.214 170.393 108.553 170.224L111.553 168.724C112.218 168.391 113 168.875 113 169.618V177.682C113 178.048 112.8 178.385 112.478 178.56L109.478 180.194C108.812 180.557 108 180.075 108 179.316V171.118Z" fill="black"/>
<path d="M97.5528 176.224C97.214 176.393 97 176.739 97 177.118V185.316C97 186.075 97.8121 186.557 98.4785 186.194L101.478 184.56C101.8 184.385 102 184.048 102 183.682V175.618C102 174.875 101.218 174.391 100.553 174.724L97.5528 176.224Z" fill="black"/>
<path d="M87 182.118C87 181.739 87.214 181.393 87.5528 181.224L90.5528 179.724C91.2177 179.391 92 179.875 92 180.618V188.682C92 189.048 91.7999 189.385 91.4785 189.56L88.4785 191.194C87.8121 191.557 87 191.075 87 190.316V182.118Z" fill="black"/>
<path d="M108.553 188.224C108.214 188.393 108 188.739 108 189.118V197.316C108 198.075 108.812 198.557 109.478 198.194L112.478 196.56C112.8 196.385 113 196.048 113 195.682V187.618C113 186.875 112.218 186.391 111.553 186.724L108.553 188.224Z" fill="black"/>
<path d="M108 206.118C108 205.739 108.214 205.393 108.553 205.224L111.553 203.724C112.218 203.391 113 203.875 113 204.618V212.682C113 213.048 112.8 213.385 112.478 213.56L109.478 215.194C108.812 215.557 108 215.075 108 214.316V206.118Z" fill="black"/>
<path d="M97.5528 194.224C97.214 194.393 97 194.739 97 195.118V203.316C97 204.075 97.8121 204.557 98.4785 204.194L101.478 202.56C101.8 202.385 102 202.048 102 201.682V193.618C102 192.875 101.218 192.391 100.553 192.724L97.5528 194.224Z" fill="black"/>
<path d="M97 212.118C97 211.739 97.214 211.393 97.5528 211.224L100.553 209.724C101.218 209.391 102 209.875 102 210.618V218.682C102 219.048 101.8 219.385 101.478 219.56L98.4785 221.194C97.8121 221.557 97 221.075 97 220.316V212.118Z" fill="black"/>
<path d="M87.5528 199.224C87.214 199.393 87 199.739 87 200.118V208.316C87 209.075 87.8121 209.557 88.4785 209.194L91.4785 207.56C91.7999 207.385 92 207.048 92 206.682V198.618C92 197.875 91.2177 197.391 90.5528 197.724L87.5528 199.224Z" fill="black"/>
<path d="M87 217.118C87 216.739 87.214 216.393 87.5528 216.224L90.5528 214.724C91.2177 214.391 92 214.875 92 215.618V223.682C92 224.048 91.7999 224.385 91.4785 224.56L88.4785 226.194C87.8121 226.557 87 226.075 87 225.316V217.118Z" fill="black"/>
<path fill-rule="evenodd" clip-rule="evenodd" d="M122 23.5H123.173C123.784 20.9122 125.937 19 128.5 19C131.063 19 133.216 20.9122 133.827 23.5H135.5C136.881 23.5 138 24.6193 138 26V26.2772C138.436 26.2763 138.884 26.3917 139.302 26.6466L175.302 48.5994C176.046 49.0533 176.5 49.8621 176.5 50.7339V54.9507L177.286 55.4225C178.039 55.8743 178.5 56.688 178.5 57.5662V63.2338C178.5 64.0831 178.095 64.7905 177.5 65.2343V97.5662C178.126 98.0351 178.5 98.7745 178.5 99.5662V105.234C178.5 106.083 178.095 106.791 177.5 107.234V230.5H200V233.5H56V230.5H79.5V107.234C78.905 106.791 78.5 106.083 78.5 105.234V99.5662C78.5 98.7745 78.8745 98.0351 79.5 97.5662V65.2343C78.905 64.7905 78.5 64.0831 78.5 63.2338V57.5662C78.5 56.688 78.9607 55.8743 79.7138 55.4225L80.5 54.9507V50.7339C80.5 49.8621 80.9541 49.0533 81.6984 48.5994L117.698 26.6466C118.279 26.2928 118.916 26.2077 119.5 26.3294V26C119.5 24.6193 120.619 23.5 122 23.5ZM131 25C131 26.9079 129.64 28 128.5 28C127.36 28 126 26.9079 126 25C126 23.0921 127.36 22 128.5 22C129.64 22 131 23.0921 131 25ZM133.827 26.5C133.216 29.0878 131.063 31 128.5 31C125.937 31 123.784 29.0878 123.173 26.5H122.5V31.5H135V26.5H133.827ZM174.5 65.2493V95.7507L139.286 74.6225C139.032 74.4697 138.767 74.3683 138.5 74.3131V43.6493L174.5 65.2493ZM138.5 82.1507V77.6493L174.5 99.2493V103.751L138.5 82.1507ZM138.5 85.6493L174.5 107.249V122.374L138.5 101.143V85.6493ZM135.5 230.5H121.5V34.5H135.5V230.5ZM138.5 29.6716V32.3131C138.767 32.3683 139.032 32.4697 139.286 32.6225L173.5 53.1507V51.0146L138.5 29.6716ZM138.5 230.5H174.5V125.857L138.5 104.626V230.5ZM138.5 35.6493V40.1507L175.5 62.3507V57.8493L138.5 35.6493ZM118.5 43.6493V74.3131C118.233 74.3683 117.968 74.4697 117.714 74.6225L82.5 95.7507V65.2493L118.5 43.6493ZM82.5 99.2493V103.751L118.5 82.1507V77.6493L82.5 99.2493ZM82.5 122.374V107.249L118.5 85.6493V101.143L82.5 122.374ZM118.5 29.6716V32.3131C118.233 32.3683 117.968 32.4697 117.714 32.6225L83.5 53.1507V51.0146L118.5 29.6716ZM82.5 230.5H118.5V104.626L82.5 125.857V230.5ZM81.5 57.8493L118.5 35.6493V40.1507L81.5 62.3507V57.8493Z" fill="black"/>
</svg>
