<svg width="256" height="256" viewBox="0 0 256 256" fill="none" xmlns="http://www.w3.org/2000/svg">
<path fill-rule="evenodd" clip-rule="evenodd" d="M180 104C179.448 104 179 104.448 179 105V140C179 140.552 179.448 141 180 141H206C206.552 141 207 140.552 207 140V105C207 104.448 206.552 104 206 104H180ZM182 107V138H204V107H182Z" fill="black"/>
<path fill-rule="evenodd" clip-rule="evenodd" d="M179 146C179 145.448 179.448 145 180 145H206C206.552 145 207 145.448 207 146V223C207 223.552 206.552 224 206 224H180C179.448 224 179 223.552 179 223V146ZM182 221V148H204V221H182Z" fill="black"/>
<path fill-rule="evenodd" clip-rule="evenodd" d="M163.015 105.637C163.032 106.096 163.064 106.551 163.109 107C163.805 113.924 167.773 119.564 173 121.386C173.962 121.721 174.966 121.927 176 121.988V104H163.015C163.005 104.271 163 104.544 163 104.819C163 105.093 163.005 105.366 163.015 105.637ZM166.122 107C166.737 112.41 169.602 116.423 173 118.118V107H166.122Z" fill="black"/>
<path fill-rule="evenodd" clip-rule="evenodd" d="M51 104C50.4477 104 50 104.448 50 105V140C50 140.552 50.4477 141 51 141H76C76.5523 141 77 140.552 77 140V105C77 104.448 76.5523 104 76 104H51ZM53 107V138H74V107H53Z" fill="black"/>
<path fill-rule="evenodd" clip-rule="evenodd" d="M50 146C50 145.448 50.4477 145 51 145H76C76.5523 145 77 145.448 77 146V223C77 223.552 76.5523 224 76 224H51C50.4477 224 50 223.552 50 223V146ZM53 221V148H74V221H53Z" fill="black"/>
<path fill-rule="evenodd" clip-rule="evenodd" d="M92.8911 107C92.9363 106.551 92.9677 106.096 92.9848 105.637C92.9949 105.366 93 105.093 93 104.819C93 104.544 92.9949 104.271 92.9848 104H80V121.988C81.0343 121.927 82.0384 121.721 83 121.386C88.2271 119.564 92.1947 113.924 92.8911 107ZM83 118.118C86.3979 116.423 89.2631 112.41 89.878 107H83V118.118Z" fill="black"/>
<path fill-rule="evenodd" clip-rule="evenodd" d="M50 44V58H77V44H50ZM74 47H53V55H74V47Z" fill="black"/>
<path fill-rule="evenodd" clip-rule="evenodd" d="M80 58V44H176V58H80ZM83 47H173V55H83V47Z" fill="black"/>
<path fill-rule="evenodd" clip-rule="evenodd" d="M179 44V58H207V44H179ZM204 47H182V55H204V47Z" fill="black"/>
<path fill-rule="evenodd" clip-rule="evenodd" d="M215.739 40.3723C215.611 40.6919 215.33 40.9188 215 40.9821V62H217.323C217.732 62 218.1 62.249 218.251 62.6286L219.851 66.6286C219.947 66.867 219.947 67.133 219.851 67.3714L218.251 71.3714C218.1 71.751 217.732 72 217.323 72H216.5V85C216.5 86.2095 215.641 87.2184 214.5 87.45V230.5H232V233.5H154V230.5H172V156C172 131.699 152.301 112 128 112C103.699 112 84 131.699 84 156V230.5H101V233.5H23V230.5H42.5V87.5H42C40.6193 87.5 39.5 86.3807 39.5 85V72H38.677C38.2681 72 37.9004 71.751 37.7485 71.3714L36.1486 67.3714C36.0532 67.133 36.0532 66.867 36.1486 66.6286L37.7485 62.6286C37.9004 62.249 38.2681 62 38.677 62H41V40.7264C40.8971 40.6291 40.8141 40.5092 40.7592 40.3723L37.5504 32.3723C37.2869 31.7153 37.7707 31 38.4785 31H218.38C219.124 31 219.607 31.7832 219.274 32.4482L217.493 36L215.739 40.3723ZM215.14 34L214.755 34.7672L213.459 38H43.04L41.4356 34H215.14ZM175 230.5H211.5V87.5H138.5V87.1924L129.75 102.032C154.897 102.952 175 123.629 175 149V230.5ZM81 230.5H45.5V87.5H117.681L126.25 102.032C101.103 102.952 81 123.629 81 149V230.5ZM115.912 84.5L108.837 72.5H42.5V84.5H115.912ZM147.163 72.5L140.088 84.5H213.5V72.5H147.163ZM128 105C109.337 105 93.3884 116.619 86.9925 133.018C95.0428 118.684 110.39 109 128 109C145.61 109 160.957 118.685 169.007 133.018C162.612 116.619 146.663 105 128 105ZM44 41H212V62H44V41ZM215.969 65L216.769 67L215.969 69H40.0311L39.2311 67L40.0311 65H215.969ZM143.533 72.75L128 99.0935L112.467 72.75L143.533 72.75Z" fill="black"/>
</svg>
