<svg width="256" height="256" viewBox="0 0 256 256" fill="none" xmlns="http://www.w3.org/2000/svg">
<path fill-rule="evenodd" clip-rule="evenodd" d="M83.3967 176.995C83.3967 177.728 83.3018 178.437 83.1121 179.12C82.9294 179.796 82.6693 180.433 82.332 181.03C81.9947 181.619 81.5872 182.159 81.1093 182.648C80.6314 183.137 80.1044 183.558 79.5282 183.91C78.9519 184.256 78.33 184.522 77.6624 184.709C76.9949 184.903 76.3027 185 75.5859 185C74.8691 185 74.1769 184.903 73.5093 184.709C72.8488 184.522 72.2269 184.256 71.6436 183.91C71.0674 183.558 70.5403 183.137 70.0625 182.648C69.5846 182.159 69.1735 181.619 68.8292 181.03C68.4919 180.433 68.2284 179.796 68.0387 179.12C67.8559 178.437 67.7646 177.728 67.7646 176.995C67.7646 176.261 67.8559 175.552 68.0387 174.869C68.2284 174.186 68.4919 173.549 68.8292 172.96C69.1735 172.37 69.5846 171.83 70.0625 171.341C70.5403 170.852 71.0674 170.435 71.6436 170.09C72.2269 169.744 72.8488 169.478 73.5093 169.291C74.1769 169.097 74.8691 169 75.5859 169C76.3027 169 76.9949 169.097 77.6624 169.291C78.33 169.478 78.9519 169.744 79.5282 170.09C80.1044 170.435 80.6314 170.852 81.1093 171.341C81.5872 171.83 81.9947 172.37 82.332 172.96C82.6693 173.549 82.9294 174.186 83.1121 174.869C83.3018 175.552 83.3967 176.261 83.3967 176.995ZM80.3925 176.995C80.3925 176.318 80.266 175.682 80.013 175.085C79.7601 174.481 79.4157 173.959 78.98 173.521C78.5514 173.075 78.0419 172.722 77.4516 172.463C76.8684 172.204 76.2465 172.075 75.5859 172.075C74.9183 172.075 74.2929 172.204 73.7096 172.463C73.1264 172.722 72.6169 173.075 72.1812 173.521C71.7455 173.959 71.4012 174.481 71.1482 175.085C70.8952 175.682 70.7687 176.318 70.7687 176.995C70.7687 177.671 70.8952 178.307 71.1482 178.904C71.4012 179.494 71.7455 180.012 72.1812 180.458C72.6169 180.904 73.1264 181.256 73.7096 181.515C74.2929 181.774 74.9183 181.904 75.5859 181.904C76.2465 181.904 76.8684 181.774 77.4516 181.515C78.0419 181.256 78.5514 180.904 78.98 180.458C79.4157 180.012 79.7601 179.494 80.013 178.904C80.266 178.307 80.3925 177.671 80.3925 176.995Z" fill="black"/>
<path fill-rule="evenodd" clip-rule="evenodd" d="M49.0651 184.666H52.0903V175.387C52.0903 174.531 51.9322 173.729 51.616 172.981C51.2998 172.226 50.8676 171.568 50.3195 171.007C49.7714 170.446 49.1284 170.003 48.3905 169.68C47.6597 169.356 46.8761 169.194 46.0399 169.194C45.2037 169.194 44.4166 169.356 43.6788 169.68C42.9479 170.003 42.3084 170.446 41.7603 171.007C41.2192 171.568 40.7906 172.226 40.4743 172.981C40.1581 173.729 40 174.531 40 175.387V184.666H43.0147V181.569H49.0651V184.666ZM49.0651 175.387V178.483H43.0147V175.387C43.0147 174.963 43.092 174.563 43.2466 174.189C43.4082 173.808 43.6261 173.477 43.9001 173.197C44.1742 172.916 44.4939 172.697 44.8593 172.539C45.2318 172.373 45.6253 172.291 46.0399 172.291C46.4545 172.291 46.8445 172.373 47.2099 172.539C47.5824 172.697 47.9056 172.916 48.1797 173.197C48.4538 173.477 48.6681 173.808 48.8227 174.189C48.9843 174.563 49.0651 174.963 49.0651 175.387Z" fill="black"/>
<path fill-rule="evenodd" clip-rule="evenodd" d="M54.715 184.666H57.7402V181.569H60.7655C61.5947 181.569 62.3747 181.407 63.1055 181.084C63.8434 180.76 64.4864 180.318 65.0345 179.757C65.5826 179.196 66.0148 178.541 66.331 177.793C66.6473 177.038 66.8054 176.236 66.8054 175.387C66.8054 174.819 66.7316 174.272 66.584 173.747C66.4435 173.222 66.2397 172.729 65.9726 172.269C65.7126 171.809 65.3964 171.392 65.024 171.018C64.6586 170.636 64.251 170.313 63.8012 170.047C63.3585 169.773 62.8807 169.565 62.3677 169.421C61.8547 169.27 61.3206 169.194 60.7655 169.194H54.715V184.666ZM60.7655 178.483H57.7402V172.291H60.7655C61.1801 172.291 61.5701 172.373 61.9355 172.539C62.3009 172.697 62.6207 172.916 62.8947 173.197C63.1688 173.477 63.3831 173.808 63.5377 174.189C63.6993 174.563 63.7801 174.963 63.7801 175.387C63.7801 175.811 63.6993 176.214 63.5377 176.595C63.3831 176.969 63.1688 177.297 62.8947 177.577C62.6207 177.858 62.3009 178.081 61.9355 178.246C61.5701 178.404 61.1801 178.483 60.7655 178.483Z" fill="black"/>
<path d="M85.3889 184.666H95.9719V181.569H88.4141V169.194H85.3889V184.666Z" fill="black"/>
<path d="M108.136 184.666H97.553V169.194H100.578V181.569H108.136V184.666Z" fill="black"/>
<path fill-rule="evenodd" clip-rule="evenodd" d="M123.715 179.12C123.905 178.437 124 177.728 124 176.995C124 176.261 123.905 175.552 123.715 174.869C123.533 174.186 123.273 173.549 122.935 172.96C122.598 172.37 122.19 171.83 121.713 171.341C121.235 170.852 120.708 170.435 120.132 170.09C119.555 169.744 118.933 169.478 118.266 169.291C117.598 169.097 116.906 169 116.189 169C115.472 169 114.78 169.097 114.113 169.291C113.452 169.478 112.83 169.744 112.247 170.09C111.671 170.435 111.144 170.852 110.666 171.341C110.188 171.83 109.777 172.37 109.433 172.96C109.095 173.549 108.832 174.186 108.642 174.869C108.459 175.552 108.368 176.261 108.368 176.995C108.368 177.728 108.459 178.437 108.642 179.12C108.832 179.796 109.095 180.433 109.433 181.03C109.777 181.619 110.188 182.159 110.666 182.648C111.144 183.137 111.671 183.558 112.247 183.91C112.83 184.256 113.452 184.522 114.113 184.709C114.78 184.903 115.472 185 116.189 185C116.906 185 117.598 184.903 118.266 184.709C118.933 184.522 119.555 184.256 120.132 183.91C120.708 183.558 121.235 183.137 121.713 182.648C122.19 182.159 122.598 181.619 122.935 181.03C123.273 180.433 123.533 179.796 123.715 179.12ZM120.616 175.085C120.869 175.682 120.996 176.318 120.996 176.995C120.996 177.671 120.869 178.307 120.616 178.904C120.363 179.494 120.019 180.012 119.583 180.458C119.155 180.904 118.645 181.256 118.055 181.515C117.472 181.774 116.85 181.904 116.189 181.904C115.522 181.904 114.896 181.774 114.313 181.515C113.73 181.256 113.22 180.904 112.785 180.458C112.349 180.012 112.005 179.494 111.752 178.904C111.499 178.307 111.372 177.671 111.372 176.995C111.372 176.318 111.499 175.682 111.752 175.085C112.005 174.481 112.349 173.959 112.785 173.521C113.22 173.075 113.73 172.722 114.313 172.463C114.896 172.204 115.522 172.075 116.189 172.075C116.85 172.075 117.472 172.204 118.055 172.463C118.645 172.722 119.155 173.075 119.583 173.521C120.019 173.959 120.363 174.481 120.616 175.085Z" fill="black"/>
<path fill-rule="evenodd" clip-rule="evenodd" d="M27 58V43.9474C27 43.4242 27.4197 43 27.9375 43H228.062C228.58 43 229 43.4242 229 43.9474V58H234.024C234.667 58 235.134 58.627 234.965 59.2631L232.571 68.2631C232.455 68.6982 232.07 69 231.63 69H229V219H231.045C231.573 219 232 219.416 232 219.929V231.071C232 231.584 231.573 232 231.045 232H24.9545C24.4274 232 24 231.584 24 231.071V219.929C24 219.416 24.4274 219 24.9545 219H27V69H24.3703C23.9304 69 23.545 68.6982 23.4292 68.2631L21.0349 59.2631C20.8657 58.627 21.3328 58 21.976 58H27ZM76.8125 58V45.8421H86.1875V58H76.8125ZM74 58V45.8421H42V58H74ZM39.1875 58V45.8421H29.9135V58H39.1875ZM213.276 219H211.955C211.427 219 211 219.416 211 219.929V229.111H136V183H214V218.694C213.746 218.772 213.504 218.875 213.276 219ZM226.188 219H217V136.971C217 136.757 216.93 136.559 216.812 136.398V127.602C216.93 127.441 217 127.243 217 127.029V94.9714C217 94.757 216.93 94.5589 216.812 94.3982V84H226.188V219ZM214.192 229.214H229.136V221.786H228.648C228.487 221.92 228.284 222 228.062 222H214.938C214.727 222 214.533 221.928 214.377 221.806C214.261 221.965 214.192 222.16 214.192 222.37V229.214ZM45.7907 222.105C45.7907 221.229 45.4911 220.422 44.9876 219.779C44.9211 219.38 44.5933 219.066 44.1806 219.009C43.7985 218.738 43.3641 218.534 42.8953 218.415V194.857H120V229.143H45.7907V222.105ZM39.1875 194.367V219H29.8125V84H39.1875V159.021C35.1936 159.315 32.0393 162.635 32.0004 166.702C31.7962 167.51 31.6875 168.359 31.6875 169.234V184.683C31.6875 185.749 31.8488 186.775 32.1473 187.738C32.6211 190.141 34.2001 192.146 36.3318 193.201C37.2033 193.741 38.1649 194.14 39.1875 194.367ZM42.9211 159H74V138.889H42.9211V159ZM77 159H86V136.963C86 136.75 86.0696 136.554 86.1875 136.395V127.602C86.0696 127.441 86 127.243 86 127.029V94.9714C86 94.757 86.0696 94.5589 86.1875 94.3982V84H76.8125V94.3982C76.9304 94.5589 77 94.757 77 94.9714V127.029C77 127.243 76.9304 127.441 76.8125 127.602V136.395C76.9304 136.554 77 136.75 77 136.963V159ZM89 159H120V138.889H89V159ZM131 166.778V167H133V84H123V159H123.235C127.524 159 131 162.482 131 166.778ZM131 170V180H214V170H131ZM131 183H133V229.111H123V194.134C123.204 194.092 123.405 194.045 123.604 193.991C127.721 193.798 131 190.394 131 186.222V183ZM27.9375 222C27.7161 222 27.5125 221.92 27.3521 221.786H26.8636V229.214H42.1364V221.786H41.6479C41.4875 221.92 41.2839 222 41.0625 222H27.9375ZM214 138.914V167H183V138.914H214ZM226.087 81H214.938C214.749 81 214.574 81.058 214.427 81.1579H182.545C182.388 81.058 182.201 81 182 81H168C167.799 81 167.612 81.058 167.455 81.1579H135.545C135.388 81.058 135.201 81 135 81H121C120.799 81 120.612 81.058 120.455 81.1579H88.574C88.4269 81.058 88.2512 81 88.0625 81H74.9375C74.7488 81 74.5731 81.058 74.426 81.1579H41.5732C41.4263 81.058 41.2509 81 41.0625 81H29.9135V69H226.087V81ZM214 84V94H183V84H214ZM214 96.9143H183V125.086H214V96.9143ZM214 128H183V136H214V128ZM180 84H170V167H180V84ZM167 94V84H136V94H167ZM136 96.9143H167V125.086H136V96.9143ZM136 128H167V136H136V128ZM136 138.914H167V167H136V138.914ZM24.5303 61L25.8605 66H230.14L231.47 61H24.5303ZM226.087 58V45.8421H216.812V58H226.087ZM214 58V45.8421H183V58H214ZM180 58V45.8421H170V58H180ZM167 58V45.8421H136V58H167ZM133 58V45.8421H123V58H133ZM120 58V45.8421H89V58H120ZM120 128V136H89V128H120ZM120.889 162.176C120.688 162.176 120.502 162.11 120.353 162H41.7708C41.619 162.167 41.4044 162.271 41.1667 162.271C38.2976 162.271 35.8518 164.164 34.9118 166.819V186.222C34.9118 186.696 34.9794 187.153 35.1054 187.586C35.6529 188.831 36.5414 189.878 37.6461 190.597C38.2862 190.909 39.0051 191.083 39.7647 191.083H123.214C125.999 190.156 128 187.608 128 184.61V169.131C128 165.29 124.816 162.176 120.889 162.176ZM42 136V128H74V136H42ZM42 84V94H74V84H42ZM120 96.9143V125.086H89V96.9143H120ZM120 94H89V84H120V94ZM74 125.086V96.9143H42.9211V125.086H74Z" fill="black"/>
</svg>
