<svg width="256" height="256" viewBox="0 0 256 256" fill="none" xmlns="http://www.w3.org/2000/svg">
<path fill-rule="evenodd" clip-rule="evenodd" d="M75 158C75 158.552 75.4477 159 76 159H89C89.5523 159 90 158.552 90 158V130C90 129.448 89.5523 129 89 129H76C75.4477 129 75 129.448 75 130V158ZM78 147V156H87V147H78ZM78 144H87V132H78V144Z" fill="black"/>
<path fill-rule="evenodd" clip-rule="evenodd" d="M75 120V92C75 91.4477 75.4477 91 76 91H89C89.5523 91 90 91.4477 90 92V120C90 120.552 89.5523 121 89 121H76C75.4477 121 75 120.552 75 120ZM78 118V109H87V118H78ZM78 94V106H87V94H78Z" fill="black"/>
<path fill-rule="evenodd" clip-rule="evenodd" d="M75 82C75 82.5523 75.4477 83 76 83H89C89.5523 83 90 82.5523 90 82V54C90 53.4477 89.5523 53 89 53H76C75.4477 53 75 53.4477 75 54V82ZM78 71V80H87V71H78ZM78 68V56H87V68H78Z" fill="black"/>
<path fill-rule="evenodd" clip-rule="evenodd" d="M105 130C105 129.448 105.448 129 106 129H119C119.552 129 120 129.448 120 130V158C120 158.552 119.552 159 119 159H106C105.448 159 105 158.552 105 158V130ZM108 156H117V147H108V156ZM108 144V132H117V144H108Z" fill="black"/>
<path fill-rule="evenodd" clip-rule="evenodd" d="M105 120V92C105 91.4477 105.448 91 106 91H119C119.552 91 120 91.4477 120 92V120C120 120.552 119.552 121 119 121H106C105.448 121 105 120.552 105 120ZM108 118V109H117V118H108ZM108 94V106H117V94H108Z" fill="black"/>
<path fill-rule="evenodd" clip-rule="evenodd" d="M105 82C105 82.5523 105.448 83 106 83H119C119.552 83 120 82.5523 120 82V54C120 53.4477 119.552 53 119 53H106C105.448 53 105 53.4477 105 54V82ZM108 71V80H117V71H108ZM108 68V56H117V68H108Z" fill="black"/>
<path fill-rule="evenodd" clip-rule="evenodd" d="M136 130C136 129.448 136.448 129 137 129H150C150.552 129 151 129.448 151 130V158C151 158.552 150.552 159 150 159H137C136.448 159 136 158.552 136 158V130ZM139 156H148V147H139V156ZM139 144V132H148V144H139Z" fill="black"/>
<path fill-rule="evenodd" clip-rule="evenodd" d="M136 120V92C136 91.4477 136.448 91 137 91H150C150.552 91 151 91.4477 151 92V120C151 120.552 150.552 121 150 121H137C136.448 121 136 120.552 136 120ZM139 118V109H148V118H139ZM139 94V106H148V94H139Z" fill="black"/>
<path fill-rule="evenodd" clip-rule="evenodd" d="M136 82C136 82.5523 136.448 83 137 83H150C150.552 83 151 82.5523 151 82V54C151 53.4477 150.552 53 150 53H137C136.448 53 136 53.4477 136 54V82ZM139 71V80H148V71H139ZM139 68V56H148V68H139Z" fill="black"/>
<path fill-rule="evenodd" clip-rule="evenodd" d="M166 130C166 129.448 166.448 129 167 129H180C180.552 129 181 129.448 181 130V158C181 158.552 180.552 159 180 159H167C166.448 159 166 158.552 166 158V130ZM169 156H178V147H169V156ZM169 144V132H178V144H169Z" fill="black"/>
<path fill-rule="evenodd" clip-rule="evenodd" d="M166 120V92C166 91.4477 166.448 91 167 91H180C180.552 91 181 91.4477 181 92V120C181 120.552 180.552 121 180 121H167C166.448 121 166 120.552 166 120ZM169 118V109H178V118H169ZM169 94V106H178V94H169Z" fill="black"/>
<path fill-rule="evenodd" clip-rule="evenodd" d="M166 82C166 82.5523 166.448 83 167 83H180C180.552 83 181 82.5523 181 82V54C181 53.4477 180.552 53 180 53H167C166.448 53 166 53.4477 166 54V82ZM169 71V80H178V71H169ZM169 68V56H178V68H169Z" fill="black"/>
<path fill-rule="evenodd" clip-rule="evenodd" d="M57.0286 43H64V177.243C63.909 177.322 63.8315 177.417 63.7727 177.527L56.7912 190.527C56.4334 191.193 56.916 192 57.6722 192H64V229.5H56.5V232.5H201V229.5H192V192H199.328C200.084 192 200.567 191.193 200.209 190.527L193.227 177.527C193.053 177.202 192.715 177 192.346 177H192V43H198.971C199.54 43 200 42.5523 200 42V25C200 24.4477 199.54 24 198.971 24H57.0286C56.4605 24 56 24.4477 56 25V42C56 42.5523 56.4605 43 57.0286 43ZM59.0857 27V40H196.914V27H59.0857ZM67 177V43H189V177H180V166C180 165.448 179.552 165 179 165H77C76.4477 165 76 165.448 76 166V177H67ZM65.8497 180L61.0164 189H195.984L191.15 180H65.8497ZM67 192V229H118V192H113V224C113 224.552 112.552 225 112 225H72C71.4477 225 71 224.552 71 224V192H67ZM74 192V222H110V192H74ZM121 192V223H135V192H121ZM138 192V229H189V192H185V224C185 224.552 184.552 225 184 225H144C143.448 225 143 224.552 143 224V192H138ZM146 192V222H182V192H146ZM79 177H177V168H79V177ZM135 229H121V226H135V229Z" fill="black"/>
</svg>
