<svg width="256" height="256" viewBox="0 0 256 256" fill="none" xmlns="http://www.w3.org/2000/svg">
<path fill-rule="evenodd" clip-rule="evenodd" d="M200 54C201.451 54 202.662 54.8589 202.94 56H207.51C207.95 56 208.338 56.2872 208.466 56.7078L210.454 63.2143C210.725 63.4283 210.881 63.7783 210.824 64.151L208.38 80.151C208.305 80.6393 207.885 81 207.391 81H204V155H233C233.552 155 234 155.448 234 156V165C234 165.372 233.797 165.696 233.497 165.868C233.499 165.912 233.5 165.956 233.5 166V230C233.5 231.381 232.381 232.5 231 232.5H25C23.6193 232.5 22.5 231.381 22.5 230L22.5 166C22.5 165.956 22.5012 165.912 22.5034 165.868C22.2026 165.696 22 165.372 22 165V156C22 155.448 22.4477 155 23 155L196 155V81H192.609C192.115 81 191.695 80.6393 191.62 80.151L189.176 64.151C189.119 63.7782 189.275 63.4281 189.546 63.2141L191.534 56.7078C191.662 56.2872 192.05 56 192.49 56H197.06C197.338 54.8589 198.549 54 200 54ZM193.054 62L206.946 62L206.03 59H193.97L193.054 62ZM207.507 66L205.674 78H194.326L192.493 66H207.507ZM199 81V205H201V81H199ZM198.685 208L196.352 229H203.648L201.315 208H198.685ZM196 205.554V166.5H127.5V175H146V171C146 170.448 146.448 170 147 170H154C154.552 170 155 170.448 155 171V175H160C160.552 175 161 175.448 161 176V198C161 198.552 160.552 199 160 199H155V205H168C168.552 205 169 205.448 169 206V219C169 219.552 168.552 220 168 220H166V229.5H193.278L195.901 205.89C195.914 205.769 195.949 205.656 196 205.554ZM157 229.5V220H127.5L127.5 229.5H157ZM160 220V229H163V220H160ZM152 175H149V173H152V175ZM158 178V185H90V178H158ZM82 208V217H166V208H82ZM149 205H152V199H149V205ZM146 199V205H127.5V199H146ZM158 196V188H90V196H158ZM124.5 220L124.5 229.5H91V220H124.5ZM25.5 229.5H82V220H80C79.4477 220 79 219.552 79 219V206C79 205.448 79.4477 205 80 205H93V199H88C87.4477 199 87 198.552 87 198V176C87 175.448 87.4477 175 88 175H93V171C93 170.448 93.4477 170 94 170H101C101.552 170 102 170.448 102 171V175H124.5V166.5H25.5L25.5 229.5ZM99 175H96V173H99V175ZM99 199H96V205H99V199ZM102 205V199H124.5V205H102ZM85 229V220H88V229H85ZM206.722 229.5L204.099 205.89C204.085 205.77 204.051 205.656 204 205.554V166.5H230.5V229.5H206.722ZM127.5 158H196V163H127.5V158ZM231 163H204V158H231V163ZM25 158L124.5 158V163L25 163L25 158Z" fill="black"/>
</svg>
