<svg width="256" height="256" viewBox="0 0 256 256" fill="none" xmlns="http://www.w3.org/2000/svg">
<path fill-rule="evenodd" clip-rule="evenodd" d="M191 123H146.76L190.474 99H191C191.552 99 192 98.5523 192 98V82C192 81.4477 191.552 81 191 81H146.984L190.428 58H191C191.552 58 192 57.5523 192 57V41C192 40.4477 191.552 40 191 40H139C138.448 40 138 40.4477 138 41V57C138 57.5523 138.448 58 139 58H184.016L140.572 81H139C138.448 81 138 81.4477 138 82V98C138 98.5523 138.448 99 139 99H184.24L140.526 123H139C138.448 123 138 123.448 138 124V140C138 140.552 138.448 141 139 141H191C191.552 141 192 140.552 192 140V124C192 123.448 191.552 123 191 123ZM189 126H141.295L141 126.162V138H189V126ZM141 84.1678V96H189V84H141.317L141 84.1678ZM141 43V55H189V43H141Z" fill="black"/>
<path fill-rule="evenodd" clip-rule="evenodd" d="M108 57C108 57.5523 108.448 58 109 58H122C122.552 58 123 57.5523 123 57V29C123 28.4477 122.552 28 122 28H109C108.448 28 108 28.4477 108 29V57ZM111 46V55H120V46H111ZM111 43V31H120V43H111Z" fill="black"/>
<path fill-rule="evenodd" clip-rule="evenodd" d="M108 97V69C108 68.4477 108.448 68 109 68H122C122.552 68 123 68.4477 123 69V97C123 97.5523 122.552 98 122 98H109C108.448 98 108 97.5523 108 97ZM111 95V86H120V95H111ZM111 71V83H120V71H111Z" fill="black"/>
<path fill-rule="evenodd" clip-rule="evenodd" d="M109 140C109 140.552 109.448 141 110 141H123C123.552 141 124 140.552 124 140V112C124 111.448 123.552 111 123 111H110C109.448 111 109 111.448 109 112V140ZM112 129V138H121V129H112ZM112 126V114H121V126H112Z" fill="black"/>
<path fill-rule="evenodd" clip-rule="evenodd" d="M77.9443 55.6035H75.4219V43H80.4668C80.9297 43 81.375 43.0615 81.8027 43.1846C82.2305 43.3018 82.6289 43.4717 82.998 43.6943C83.373 43.9111 83.7129 44.1748 84.0176 44.4854C84.3281 44.79 84.5918 45.1299 84.8086 45.5049C85.0312 45.8799 85.2012 46.2812 85.3184 46.709C85.4414 47.1367 85.5029 47.582 85.5029 48.0449C85.5029 48.7363 85.3711 49.3896 85.1074 50.0049C84.8438 50.6143 84.4834 51.1475 84.0264 51.6045C83.5693 52.0615 83.0332 52.4219 82.418 52.6855C81.8086 52.9492 81.1582 53.0811 80.4668 53.0811H77.9443V55.6035ZM77.9443 45.5225V50.5674H80.4668C80.8125 50.5674 81.1377 50.5029 81.4424 50.374C81.7471 50.2393 82.0137 50.0576 82.2422 49.8291C82.4707 49.6006 82.6494 49.334 82.7783 49.0293C82.9131 48.7188 82.9805 48.3906 82.9805 48.0449C82.9805 47.6992 82.9131 47.374 82.7783 47.0693C82.6494 46.7588 82.4707 46.4893 82.2422 46.2607C82.0137 46.0322 81.7471 45.8535 81.4424 45.7246C81.1377 45.5898 80.8125 45.5225 80.4668 45.5225H77.9443Z" fill="black"/>
<path d="M81.293 77.6035H78.7705V65H81.293V77.6035Z" fill="black"/>
<path d="M75.167 99.6035H84.9229V97.0811H79.5615L84.9229 87H75.167V89.5225H80.5459L75.167 99.6035Z" fill="black"/>
<path d="M84.9229 121.604H75.167L80.5459 111.522H75.167V109H84.9229L79.5615 119.081H84.9229V121.604Z" fill="black"/>
<path fill-rule="evenodd" clip-rule="evenodd" d="M82.5586 143.604H85.0811V136.045C85.0811 135.348 84.9492 134.694 84.6855 134.085C84.4219 133.47 84.0615 132.934 83.6045 132.477C83.1475 132.02 82.6113 131.659 81.9961 131.396C81.3867 131.132 80.7334 131 80.0361 131C79.3389 131 78.6826 131.132 78.0674 131.396C77.458 131.659 76.9248 132.02 76.4678 132.477C76.0166 132.934 75.6592 133.47 75.3955 134.085C75.1318 134.694 75 135.348 75 136.045V143.604H77.5137V141.081H82.5586V143.604ZM82.5586 136.045V138.567H77.5137V136.045C77.5137 135.699 77.5781 135.374 77.707 135.069C77.8418 134.759 78.0234 134.489 78.252 134.261C78.4805 134.032 78.7471 133.854 79.0518 133.725C79.3623 133.59 79.6904 133.522 80.0361 133.522C80.3818 133.522 80.707 133.59 81.0117 133.725C81.3223 133.854 81.5918 134.032 81.8203 134.261C82.0488 134.489 82.2275 134.759 82.3564 135.069C82.4912 135.374 82.5586 135.699 82.5586 136.045Z" fill="black"/>
<path fill-rule="evenodd" clip-rule="evenodd" d="M99 185C99 184.448 99.4477 184 100 184H114C114.552 184 115 184.448 115 185V220C115 220.552 114.552 221 114 221H100C99.4477 221 99 220.552 99 220V185ZM102 218V187H112V218H102Z" fill="black"/>
<path fill-rule="evenodd" clip-rule="evenodd" d="M122 220C122 219.448 122.448 219 123 219H192C192.552 219 193 219.448 193 220V225C193 225.552 192.552 226 192 226H123C122.448 226 122 225.552 122 225V220ZM125 223V222H190V223H125Z" fill="black"/>
<path fill-rule="evenodd" clip-rule="evenodd" d="M93 35V17C93 16.4477 93.4477 16 94 16H198C198.552 16 199 16.4477 199 17V152.023C199.387 152.108 199.695 152.418 199.769 152.82L202.785 169.337C202.885 169.884 202.522 170.393 202 170.497V178C202 178.552 201.552 179 201 179H199V229.5H216V232.5H40V229.5H60.5V211H63.5V220.5H72V223.5H71.5V229.5H76.5V217.5H68V214.5H88V217.5H79.5V229.5H93V179H68C67.4477 179 67 178.552 67 178V170.993L66.8192 170.994C66.0306 170.996 65.5493 170.128 65.9695 169.461L75.0773 155H65C64.4477 155 64 154.552 64 154V36C64 35.4477 64.4477 35 65 35H93ZM96 19H196V152H96V19ZM93 38H67V152H93V38ZM78.6227 155L70.4471 167.981L108.164 167.848L111.019 155H78.6227ZM68.5 223.5H63.5V229.5H68.5V223.5ZM117 228V227H97V228H117ZM117 224V179H96V224H117ZM162.5 176V171H110.537L110.5 171.165V176H162.5ZM162.009 167.658L111.24 167.837L114.092 155H158.053L162.009 167.658ZM165.149 167.646L199.405 167.525L197.117 155H161.197L165.149 167.646ZM165.5 171V176H199V171H165.5ZM70 171H107.5V176H70V171ZM120 228H196V179H193V215C193 215.552 192.552 216 192 216H123C122.448 216 122 215.552 122 215V179H120V228ZM125 179V193H190V179H125ZM125 196V213H190V196H125Z" fill="black"/>
</svg>
