<svg width="256" height="256" viewBox="0 0 256 256" fill="none" xmlns="http://www.w3.org/2000/svg">
<path fill-rule="evenodd" clip-rule="evenodd" d="M104 16C103.448 16 103 16.4477 103 17V17.5H100C98.6193 17.5 97.5 18.6193 97.5 20V31C97.5 32.0498 98.1471 32.9485 99.0642 33.319L93.8455 62.6743L93.8106 62.7091L93.835 62.7335L83.832 119H83C82.4477 119 82 119.448 82 120V155C82 155.37 82.2011 155.693 82.5 155.866V217H79C78.4477 217 78 217.448 78 218V231C78 231.552 78.4477 232 79 232H105C105.552 232 106 231.552 106 231V218C106 217.448 105.552 217 105 217H103.727V180.898C103.727 167.492 114.595 156.625 128 156.625C141.405 156.625 152.273 167.492 152.273 180.898V217H151C150.448 217 150 217.448 150 218V231C150 231.552 150.448 232 151 232H177C177.552 232 178 231.552 178 231V218C178 217.448 177.552 217 177 217H173.5V155.866C173.799 155.693 174 155.37 174 155V120C174 119.448 173.552 119 173 119H172.348L157.385 33.0816C158.057 32.6334 158.5 31.8684 158.5 31V20C158.5 18.6193 157.381 17.5 156 17.5H153V17C153 16.4477 152.552 16 152 16H144C143.448 16 143 16.4477 143 17V17.5H113V17C113 16.4477 112.552 16 112 16H104ZM106 19V33H110V19H106ZM96.4221 65.3206L95.2215 72.0737L99.766 68.6646L96.4221 65.3206ZM95.243 75.8079L99.9175 80.4824L106.583 75.4819L101.909 70.8074L95.243 75.8079ZM108.06 72.7162L109.398 65.1889L104.333 68.9889L108.06 72.7162ZM114.865 34.4402L115.032 33.5H113V35C113 35.5523 112.552 36 112 36H104C103.938 36 103.877 35.9943 103.818 35.9835L107.556 39.7416L114.764 34.3053L114.865 34.4402ZM114.137 38.536L109.692 41.8885L112.957 45.1715L114.137 38.536ZM115.508 47.9633L115.621 47.8496L115.542 47.7703L115.605 47.4166L126.3 56.8529L111.626 69.8005L115.508 47.9633ZM112.316 48.7804L112.156 48.6203L112.307 48.8311L112.316 48.7804ZM111.505 47.9658L107.274 43.7118L100.669 48.6931L104.919 53.1673L111.505 47.9658ZM99.9496 45.4782L105.138 41.5649L101.327 37.7328L99.9496 45.4782ZM101.968 34.1239L102.079 33.5H103V35C103 35.0604 103.005 35.1195 103.016 35.1769L101.968 34.1239ZM111.827 51.5301L106.991 55.3488L110.493 59.0348L111.827 51.5301ZM108.958 61.7692L104.63 57.2135L97.8848 62.5407L102.19 66.8461L108.958 61.7692ZM97.5477 58.9888L102.558 55.0319L98.9302 51.2126L97.5477 58.9888ZM170.5 177.053V177.924L170.261 177.644L163.238 185.884L156.822 178.356V176.622L163.338 168.976L170.361 177.216L170.5 177.053ZM165.184 188.167L170.5 181.931V194.404L165.184 188.167ZM163.238 206.339L170.009 198.395L163.238 190.45L156.822 197.979V198.81L163.238 206.339ZM165.184 208.622L170.5 202.385V214.858L165.184 208.622ZM163.238 210.905L168.433 217H158.043L163.238 210.905ZM161.292 208.622L156.822 213.867V203.377L161.292 208.622ZM161.292 188.167L156.822 193.412V182.922L161.292 188.167ZM156.822 161.331L161.292 166.576L156.822 171.822V161.331ZM163.238 164.293L156.822 156.765V156H170.5V156.333L170.261 156.053L163.238 164.293ZM170.5 172.813L165.284 166.693L170.5 160.574V172.813ZM170.5 153V132H156.822V153H170.5ZM171 129H85V122H171V129ZM153.822 156V172.097C151.374 164.914 146.013 159.079 139.148 156H153.822ZM151.382 132L150.737 132.495L150.143 132H151.382ZM142.662 142.466L150.659 136.335L153.822 138.971V146.874L151.085 148.89L142.662 142.466ZM148.569 150.744L140.195 144.357L131.041 151.375L132.913 152.81L132.767 153H145.507L148.569 150.744ZM150.564 153L151.054 152.639L151.527 153H150.564ZM153.57 150.785L153.822 150.6V150.977L153.57 150.785ZM145.457 132L148.296 134.366L140.19 140.581L131.208 133.73L133.502 132H145.457ZM153.1 134.464L153.822 135.065V133.91L153.1 134.464ZM126.244 133.716L123.993 132H111.981L108.765 134.297L117.051 140.649L126.244 133.716ZM106.213 136.12L114.565 142.523L106.033 148.957L102.5 146.548V138.772L106.213 136.12ZM102.5 150.179L103.504 150.864L102.5 151.621V150.179ZM106.637 153L106.121 152.648L105.654 153H106.637ZM108.65 150.741L111.963 153H123.991L126.111 151.375L117.036 144.417L108.65 150.741ZM106.276 132.388L106.819 132H105.77L106.276 132.388ZM103.723 134.211L102.5 135.085V133.273L103.723 134.211ZM128.721 135.606L137.723 142.472L128.576 149.485L119.521 142.543L128.721 135.606ZM102.5 156H116.852C110.273 158.95 105.076 164.432 102.5 171.205V156ZM99.5 213.082V201.889L94.7297 207.485L99.5 213.082ZM99.5 197.322L92.7837 205.202L86.0126 197.258L92.7837 189.314L99.5 197.194V197.322ZM85.5085 197.258L85.5 197.248V197.268L85.5085 197.258ZM85.5 201.223L90.8376 207.485L85.5 213.748V201.223ZM98.9473 217L92.7837 209.769L86.62 217H98.9473ZM99.5 192.628L94.7297 187.031L99.5 181.434V192.628ZM85.5 193.293V180.769L90.8376 187.031L85.5 193.293ZM99.5 175.603V176.868L92.7837 184.748L85.7605 176.508L85.5 176.814V175.657L85.7605 175.963L92.7837 167.723L99.5 175.603ZM99.5 171.037L94.7297 165.44L99.5 159.843V171.037ZM98.8838 156L92.7837 163.157L86.6836 156H98.8838ZM85.5 159.178L90.8376 165.44L85.5 171.702V159.178ZM99.5 153H85.5V132H99.5V153ZM143 20.5H113V30.5H143V20.5ZM143 33.5H141.369L141.529 34.4269L143.32 35.7337C143.123 35.551 143 35.2899 143 35V33.5ZM143.361 45.0055L142.265 38.6759L146.61 41.8459L143.361 45.0055ZM140.873 48.2198L140.752 48.1017L130.834 56.8529L144.449 68.8663L140.873 48.2198ZM149.068 43.6388L144.629 47.9556L151.573 53.1648L156.024 48.7137L149.068 43.6388ZM155.149 37.7253L156.473 45.3289L151.249 41.5178L155.149 37.7253ZM154.413 33.5L154.526 34.1481L148.791 39.7248L143.51 35.8719C143.655 35.9535 143.822 36 144 36H152C152.552 36 153 35.5523 153 35V33.5H154.413ZM145.778 58.96L144.506 51.6133L149.43 55.3077L145.778 58.96ZM153.846 66.8012L147.18 61.8006L151.854 57.1262L158.52 62.1267L153.846 66.8012ZM157.538 51.4429L158.779 58.5705L153.997 54.9834L157.538 51.4429ZM148.043 72.0373L146.881 65.3263L151.703 68.944L148.344 72.3031L148.043 72.0373ZM156.119 80.4376L149.453 75.437L154.127 70.7625L160.793 75.7632L156.119 80.4376ZM159.897 64.9923L161.169 72.295L156.27 68.6197L159.897 64.9923ZM150.475 86.0813L149.255 79.0392L153.976 82.5804L150.475 86.0813ZM151.244 90.521L151.101 89.6976L156.4 84.3989L163.44 89.6801L158.237 95.3303L151.244 90.521ZM162.257 78.5417L163.559 86.0195L158.543 82.2561L162.257 78.5417ZM153.052 100.961L151.96 94.6542L156.184 97.5595L153.052 100.961ZM153.699 104.696L153.697 104.689L158.681 99.2767L166.236 104.472L160.732 109.884L153.699 104.696ZM164.725 92.7131L166.126 100.755L160.734 97.0474L164.725 92.7131ZM155.49 115.039L154.439 108.969L158.566 112.014L155.49 115.039ZM156.176 119L156.113 118.634L161.011 113.817L168.036 119H156.176ZM167.32 107.613L168.745 115.795L163.177 111.687L167.32 107.613ZM153 30.5H155.5V20.5H153V30.5ZM103 30.5V20.5H100.5V30.5H103ZM94.0207 78.8283L92.774 85.8413L97.4933 82.3009L94.0207 78.8283ZM92.3134 89.937L97.718 95.3416L104.804 90.0261L104.949 90.2193L105.019 89.8261L99.6362 84.4437L92.3134 89.937ZM105.659 86.2239L106.951 78.9564L102.06 82.6252L105.659 86.2239ZM91.4458 93.3121L90.0643 101.083L95.2939 97.1601L91.4458 93.3121ZM90.8519 104.243L95.6156 109.684L102.409 104.505L102.444 104.31L97.4367 99.3029L90.8519 104.243ZM105.671 103.295L109.27 83.0506L125.488 96.8535L103.452 115.776L105.666 103.322L105.682 103.306L105.671 103.295ZM103.084 100.708L99.8608 97.4844L104.241 94.1984L103.084 100.708ZM89.0592 106.737L87.4251 115.929L93.2312 111.502L89.0592 106.737ZM88.332 119H99.7949L95.2066 113.759L88.332 119ZM100.497 115.26L101.635 108.857L97.591 111.941L100.497 115.26ZM128.567 54.8525L140.238 44.5539L138.324 33.5H118.079L116.22 43.9582L128.567 54.8525ZM128.567 58.8534L145.267 73.5888L146.214 79.0567L127.792 94.875L109.878 79.6289L110.782 74.5457L128.567 58.8534ZM127.801 98.8218L104.302 119H151.511L127.801 98.8218ZM152.611 115.997L146.81 82.4991L130.105 96.8433L152.611 115.997ZM81 220V229H103V220H81ZM153 229V220H175V229H153ZM146 33V19H150V33H146Z" fill="black"/>
</svg>
