<svg width="256" height="256" viewBox="0 0 256 256" fill="none" xmlns="http://www.w3.org/2000/svg">
<path d="M99.5 151V168H102.5V151H99.5Z" fill="black"/>
<path d="M99.5 173V190H102.5V173H99.5Z" fill="black"/>
<path d="M92.5 151L92.5 168H95.5V151H92.5Z" fill="black"/>
<path d="M92.5 173L92.5 190H95.5V173H92.5Z" fill="black"/>
<path d="M152.5 168V151H149.5V168H152.5Z" fill="black"/>
<path d="M152.5 190V173H149.5V190H152.5Z" fill="black"/>
<path d="M160.5 168V151H157.5V168H160.5Z" fill="black"/>
<path d="M160.5 190V173H157.5V190H160.5Z" fill="black"/>
<path fill-rule="evenodd" clip-rule="evenodd" d="M128.212 15.9259L125.218 15.9013L123.629 40H122C121.448 40 121 40.4477 121 41V63.6597C118.934 65.8641 117.436 70.0437 117.081 75C117.044 75.5069 117.02 76.022 117.008 76.5439C117.003 76.7852 117 77.0279 117 77.272C117 77.516 117.003 77.7587 117.008 78H117.085C115.475 80.6281 114.384 84.1063 114.084 87.9883L114.083 88H113C112.448 88 112 88.4477 112 89V92H104C103.448 92 103 92.4477 103 93V98H98C97.4477 98 97 98.4477 97 99V105.5H92.5V146H84C83.4477 146 83 146.448 83 147V191.5H81C79.6193 191.5 78.5 192.619 78.5 194V232H81.5V194.5H111.5V232H114.5V194C114.5 192.619 113.381 191.5 112 191.5L112 147C112 146.448 111.552 146 111 146H106.5V130H103.5V146H95.5V108.5H157.5V146H146.5V130H143.5V146H142C141.448 146 141 146.448 141 147V191.5H140C138.619 191.5 137.5 192.619 137.5 194V232H140.5V194.5H170.5V232H173.5V194C173.5 192.619 172.381 191.5 171 191.5H169V147C169 146.448 168.552 146 168 146H160.5V105.5H154V99C154 98.4477 153.552 98 153 98H149V93C149 92.4477 148.552 92 148 92H141V89C141 88.4477 140.552 88 140 88H138.917L138.916 87.9883C138.616 84.1063 137.525 80.6281 135.915 78H135.992C135.997 77.7587 136 77.516 136 77.272C136 77.0279 135.997 76.7852 135.992 76.5439C135.98 76.022 135.956 75.5069 135.919 75C135.564 70.0437 134.066 65.8641 132 63.6597V41C132 40.4477 131.552 40 131 40H129.403L128.212 15.9259ZM121 73.9589C120.704 74.1304 120.413 74.3231 120.13 74.5358C120.291 72.8626 120.596 71.3301 121 69.9963V73.9589ZM120.788 78C120.349 78.4953 119.917 79.0922 119.502 79.8019C118.274 81.9044 117.376 84.7389 117.094 87.9883H121V78H120.788ZM124 88H129V49H124V88ZM132.212 78H132V87.9883H135.906C135.624 84.7389 134.726 81.9044 133.498 79.8019C133.083 79.0922 132.651 78.4953 132.212 78ZM132 69.9963C132.404 71.3301 132.709 72.8626 132.87 74.5358C132.587 74.3231 132.296 74.1304 132 73.9589V69.9963ZM124 43.5H129V46H124V43.5ZM115 91V92H138V91H115ZM106 95V98H146V95H106ZM100 101H151V105H100V101ZM86 191V149H109V191H86ZM166 149V191H144V149H166Z" fill="black"/>
<path d="M128.5 130V147L131.5 147V130H128.5Z" fill="black"/>
<path d="M128.5 168V151H131.5V168H128.5Z" fill="black"/>
<path d="M128.5 173V190H131.5V173H128.5Z" fill="black"/>
<path d="M128.5 211V194H131.5V211H128.5Z" fill="black"/>
<path d="M102.5 198V211H105.5V198H102.5Z" fill="black"/>
<path d="M149.5 211V198H146.5V211H149.5Z" fill="black"/>
<path d="M102.5 215V232H105.5V215H102.5Z" fill="black"/>
<path d="M149.5 232V215H146.5V232H149.5Z" fill="black"/>
<path d="M128.5 215V232H131.5V215H128.5Z" fill="black"/>
<path d="M120.5 147V130H123.5V147L120.5 147Z" fill="black"/>
<path d="M120.5 151V168H123.5V151H120.5Z" fill="black"/>
<path d="M120.5 190V173H123.5V190H120.5Z" fill="black"/>
<path d="M120.5 194V211H123.5V194H120.5Z" fill="black"/>
<path d="M95.5 211V198H98.5V211H95.5Z" fill="black"/>
<path d="M156.5 198V211H153.5V198H156.5Z" fill="black"/>
<path d="M95.5 232V215H98.5V232H95.5Z" fill="black"/>
<path d="M156.5 215V232H153.5V215H156.5Z" fill="black"/>
<path d="M120.5 232V215H123.5V232H120.5Z" fill="black"/>
<path d="M103.5 113V119H106.5V113H103.5Z" fill="black"/>
<path d="M119.5 119V113H122.5V119H119.5Z" fill="black"/>
<path d="M127.5 113V119H130.5V113H127.5Z" fill="black"/>
<path d="M143.5 119V113H146.5V119H143.5Z" fill="black"/>
<path d="M88.5 198L88.5 211H91.5L91.5 198H88.5Z" fill="black"/>
<path d="M164.5 211V198H161.5V211H164.5Z" fill="black"/>
<path d="M88.5 215L88.5 232H91.5L91.5 215H88.5Z" fill="black"/>
<path d="M164.5 232V215H161.5V232H164.5Z" fill="black"/>
</svg>
