<svg width="256" height="256" viewBox="0 0 256 256" fill="none" xmlns="http://www.w3.org/2000/svg">
<path fill-rule="evenodd" clip-rule="evenodd" d="M128.974 17.6993C126.413 16.7669 123.587 16.7669 121.026 17.6993L87.2401 30H86.3999C69.4367 22 49.5633 22 32.6001 30H26.0204C25.4569 30 25 30.4477 25 31V39C25 39.5523 25.4569 40 26.0204 40H27V82H26.0204C25.4569 82 25 82.4477 25 83V89C25 89.5523 25.4569 90 26.0204 90H27V133H25.0204C24.4569 133 24 133.448 24 134V140C24 140.552 24.4569 141 25.0204 141H27V184H25.0204C24.4569 184 24 184.448 24 185V191C24 191.552 24.4569 192 25.0204 192H27V234.513L21.0067 234.5L21 237.5L229.997 237.952L230.003 234.952L222 234.934V192H222.98C223.543 192 224 191.552 224 191V185C224 184.448 223.543 184 222.98 184H222V141H222.98C223.543 141 224 140.552 224 140V134C224 133.448 223.543 133 222.98 133H222V90H223.98C224.543 90 225 89.5523 225 89V83C225 82.4477 224.543 82 223.98 82H222V40H223.98C224.543 40 225 39.5523 225 39V31C225 30.4477 224.543 30 223.98 30H217.4C200.437 22 180.563 22 163.6 30H162.76L128.974 17.6993ZM154.082 30H95.9177L122.11 20.464C123.972 19.7859 126.028 19.7859 127.89 20.464L154.082 30ZM206 234.9V192H43V234.548L51 234.565V200H72V234.61L82 234.632V200H105V234.681L114 234.701V200H135V234.746L145 234.768V200H168V234.818L177 234.837V200H200V234.887L206 234.9ZM221.939 33V37H28.0612V33H221.939ZM40.5443 30C52.8194 25.9226 66.1807 25.9226 78.4558 30H40.5443ZM171.544 30C183.819 25.9226 197.181 25.9226 209.456 30H171.544ZM206 141H43V156H48.2521C49.1401 152.55 52.2723 150 56 150H67C70.7277 150 73.8599 152.55 74.748 156H79.2611C80.1809 152.55 83.4249 150 87.2857 150H99.7143C103.575 150 106.819 152.55 107.739 156H111.252C112.14 152.55 115.272 150 119 150H130C133.728 150 136.86 152.55 137.748 156H142.261C143.181 152.55 146.425 150 150.286 150H162.714C166.575 150 169.819 152.55 170.739 156H174.252C175.14 152.55 178.272 150 182 150H194C197.728 150 200.86 152.55 201.748 156H206V141ZM51 158V184H72V158C72 155.239 69.7614 153 67 153H56C53.2386 153 51 155.239 51 158ZM27.0612 187V189H220.939V187H27.0612ZM40 184V178H30V184H40ZM40 175V169H30V175H40ZM40 166V160H30V166H40ZM40 157V151H30V157H40ZM47.7 184V159H43.3V184H47.7ZM138 184V159H142V184H138ZM130 153C132.761 153 135 155.239 135 158V184H114V158C114 155.239 116.239 153 119 153H130ZM79 159H75V184H79V159ZM205.667 184H202.333V159H205.667V184ZM194 153C196.761 153 199 155.239 199 158V184H177V158C177 155.239 179.239 153 182 153H194ZM219 184H209V178H219V184ZM219 175H209V169H219V175ZM219 166H209V160H219V166ZM219 157H209V151H219V157ZM174 159H171L171 184H174V159ZM108 184V159H111V184H108ZM209 148H219V142H209V148ZM209 100H219V106H209V100ZM206 105V90H43V105H48.2521C49.1401 101.55 52.2723 99 56 99H67C70.7277 99 73.8599 101.55 74.748 105H79.2611C80.1809 101.55 83.4249 99 87.2857 99H99.7143C103.575 99 106.819 101.55 107.739 105H111.252C112.14 101.55 115.272 99 119 99H130C133.728 99 136.86 101.55 137.748 105H142.261C143.181 101.55 146.425 99 150.286 99H162.714C166.575 99 169.819 101.55 170.739 105H174.252C175.14 101.55 178.272 99 182 99H194C197.728 99 200.86 101.55 201.748 105H206ZM47.7 133H43.3V108H47.7V133ZM40 100V106H30V100H40ZM30 109H40V115H30V109ZM30 118H40V124H30V118ZM30 127H40V133H30V127ZM27.0612 136H220.939V138H27.0612V136ZM72 133H51V107C51 104.239 53.2386 102 56 102H67C69.7614 102 72 104.239 72 107V133ZM135 133H114V107C114 104.239 116.239 102 119 102H130C132.761 102 135 104.239 135 107V133ZM142 108H138V133H142V108ZM75 133V108H79V133H75ZM205.667 133V108H202.333V133H205.667ZM199 107C199 104.239 196.761 102 194 102H182C179.239 102 177 104.239 177 107V133H199V107ZM209 133H219V127H209V133ZM209 124H219V118H209V124ZM209 115H219V109H209V115ZM171 108H174V133H171L171 108ZM108 108V133H111V108H108ZM219 97H209V91H219V97ZM219 40H209V46H219V40ZM206 40H43V54H48.2521C49.1401 50.5495 52.2723 48 56 48H67C70.7277 48 73.8599 50.5495 74.748 54H79.2611C80.1809 50.5495 83.4249 48 87.2857 48H99.7143C103.575 48 106.819 50.5495 107.739 54H111.252C112.14 50.5495 115.272 48 119 48H130C133.728 48 136.86 50.5495 137.748 54H142.261C143.181 50.5495 146.425 48 150.286 48H162.714C166.575 48 169.819 50.5495 170.739 54H174.252C175.14 50.5495 178.272 48 182 48H194C197.728 48 200.86 50.5495 201.748 54H206V40ZM51 56V82H72V56C72 53.2386 69.7614 51 67 51H56C53.2386 51 51 53.2386 51 56ZM221.939 85V87H28.0612V85H221.939ZM40 82V76H30V82H40ZM40 73V67H30V73H40ZM40 64V58H30V64H40ZM40 55V49H30V55H40ZM47.7 82V57H43.3V82H47.7ZM138 82V57H142V82H138ZM130 51C132.761 51 135 53.2386 135 56V82H114V56C114 53.2386 116.239 51 119 51H130ZM79 57H75V82H79V57ZM205.667 82H202.333V57H205.667V82ZM194 51C196.761 51 199 53.2386 199 56V82H177V56C177 53.2386 179.239 51 182 51H194ZM219 82H209V76H219V82ZM219 73H209V67H219V73ZM219 64H209V58H219V64ZM219 55H209V49H219V55ZM174 57H171L171 82H174V57ZM108 82V57H111V82H108ZM40 148H30V142H40V148ZM40 97V91H30V97H40ZM30 46V40H40V46H30ZM167.893 82V56C167.893 53.2386 165.574 51 162.714 51H150.286C147.426 51 145.107 53.2386 145.107 56V82H167.893ZM104.893 82V56C104.893 53.2386 102.574 51 99.7143 51H87.2857C84.4257 51 82.1072 53.2386 82.1072 56V82H104.893ZM54 203H69V234H54V203ZM85.1364 203H101.864V234H85.1364V203ZM132 203H117V234H132V203ZM148.136 203H164.864V234H148.136V203ZM197 203H180V234H197V203ZM167.893 107V133H145.107V107C145.107 104.239 147.426 102 150.286 102H162.714C165.574 102 167.893 104.239 167.893 107ZM82.1072 133H104.893V107C104.893 104.239 102.574 102 99.7143 102H87.2857C84.4257 102 82.1072 104.239 82.1072 107V133ZM209 192H219V200H209V192ZM209 203H219V207H209V203ZM30 192V200H40V192H30ZM30 203V207H40V203H30ZM167.893 184V158C167.893 155.239 165.574 153 162.714 153H150.286C147.426 153 145.107 155.239 145.107 158V184H167.893ZM104.893 184H82.1072V158C82.1072 155.239 84.4257 153 87.2857 153H99.7143C102.574 153 104.893 155.239 104.893 158V184ZM30 221V217H40V221H30ZM40 210H30V214H40V210ZM30 224V234H40V224H30ZM209 217V221H219V217H209ZM209 210H219V214H209V210ZM209 234V224H219V234H209Z" fill="black"/>
</svg>
