<svg width="256" height="256" viewBox="0 0 256 256" fill="none" xmlns="http://www.w3.org/2000/svg">
<path fill-rule="evenodd" clip-rule="evenodd" d="M128.024 79.5C128.024 80.5149 127.914 81.3731 127.693 82.0746C127.472 82.7761 127.17 83.3433 126.788 83.7761C126.405 84.209 125.956 84.5224 125.441 84.7164C124.93 84.9055 124.383 85 123.799 85C123.215 85 122.666 84.903 122.151 84.709C121.64 84.5099 121.194 84.194 120.811 83.7612C120.433 83.3234 120.134 82.7562 119.913 82.0597C119.692 81.3582 119.582 80.505 119.582 79.5C119.582 78.4851 119.692 77.6294 119.913 76.9328C120.134 76.2313 120.433 75.6642 120.811 75.2313C121.194 74.7985 121.64 74.4851 122.151 74.291C122.666 74.097 123.215 74 123.799 74C124.383 74 124.93 74.0995 125.441 74.2985C125.956 74.4925 126.405 74.8085 126.788 75.2463C127.17 75.6841 127.472 76.2512 127.693 76.9478C127.914 77.6443 128.024 78.495 128.024 79.5ZM126.015 79.5C126.015 78.3109 125.818 77.4279 125.426 76.8507C125.038 76.2736 124.496 75.9851 123.799 75.9851C123.107 75.9851 122.57 76.2711 122.187 76.8433C121.805 77.4154 121.613 78.301 121.613 79.5C121.613 80.6891 121.805 81.5721 122.187 82.1493C122.57 82.7264 123.107 83.0149 123.799 83.0149C124.148 83.0149 124.459 82.9453 124.734 82.806C125.009 82.6617 125.239 82.4453 125.426 82.1567C125.617 81.8682 125.762 81.505 125.86 81.0672C125.963 80.6244 126.015 80.102 126.015 79.5Z" fill="black"/>
<path d="M118.39 77.3582C118.39 77.801 118.306 78.2189 118.139 78.6119C117.973 79 117.744 79.3408 117.455 79.6343C117.17 79.9229 116.837 80.1517 116.454 80.3209C116.071 80.4901 115.661 80.5746 115.225 80.5746H114.165C114.018 80.5746 113.88 80.602 113.753 80.6567C113.625 80.7114 113.512 80.7886 113.414 80.8881C113.321 80.9826 113.247 81.0945 113.193 81.2239C113.139 81.3532 113.112 81.4925 113.112 81.6418V82.709H118.103V84.8507H111V81.6418C111 81.199 111.083 80.7836 111.25 80.3955C111.417 80.0025 111.643 79.6617 111.927 79.3731C112.217 79.0796 112.553 78.8507 112.936 78.6866C113.318 78.5174 113.728 78.4328 114.165 78.4328H115.225C115.372 78.4328 115.509 78.4055 115.637 78.3507C115.764 78.296 115.875 78.2214 115.968 78.1269C116.066 78.0274 116.142 77.9129 116.196 77.7836C116.25 77.6493 116.277 77.5075 116.277 77.3582C116.277 77.209 116.25 77.0697 116.196 76.9403C116.142 76.8109 116.066 76.699 115.968 76.6045C115.875 76.505 115.764 76.4279 115.637 76.3731C115.509 76.3184 115.372 76.291 115.225 76.291H111.456V74.1493H115.225C115.661 74.1493 116.071 74.2338 116.454 74.403C116.837 74.5721 117.17 74.8035 117.455 75.097C117.744 75.3856 117.973 75.7239 118.139 76.1119C118.306 76.5 118.39 76.9154 118.39 77.3582Z" fill="black"/>
<path d="M136.437 78.6119C136.604 78.2189 136.687 77.801 136.687 77.3582C136.687 76.9154 136.604 76.5 136.437 76.1119C136.27 75.7239 136.042 75.3856 135.752 75.097C135.468 74.8035 135.134 74.5721 134.751 74.403C134.368 74.2338 133.959 74.1493 133.522 74.1493H129.754V76.291H133.522C133.669 76.291 133.807 76.3184 133.934 76.3731C134.062 76.4279 134.172 76.505 134.265 76.6045C134.364 76.699 134.44 76.8109 134.494 76.9403C134.548 77.0697 134.575 77.209 134.575 77.3582C134.575 77.5075 134.548 77.6493 134.494 77.7836C134.44 77.9129 134.364 78.0274 134.265 78.1269C134.172 78.2214 134.062 78.296 133.934 78.3507C133.807 78.4055 133.669 78.4328 133.522 78.4328H132.462C132.026 78.4328 131.616 78.5174 131.233 78.6866C130.85 78.8507 130.514 79.0796 130.225 79.3731C129.94 79.6617 129.714 80.0025 129.548 80.3955C129.381 80.7836 129.297 81.199 129.297 81.6418V84.8507H136.4V82.709H131.41V81.6418C131.41 81.4925 131.437 81.3532 131.491 81.2239C131.545 81.0945 131.618 80.9826 131.711 80.8881C131.81 80.7886 131.922 80.7114 132.05 80.6567C132.178 80.602 132.315 80.5746 132.462 80.5746H133.522C133.959 80.5746 134.368 80.4901 134.751 80.3209C135.134 80.1517 135.468 79.9229 135.752 79.6343C136.042 79.3408 136.27 79 136.437 78.6119Z" fill="black"/>
<path d="M141 84.8507H138.888V76.291H137.835V74.1493H141V84.8507Z" fill="black"/>
<path fill-rule="evenodd" clip-rule="evenodd" d="M120.881 21.3397C122.711 20.3761 125 21.5772 125 23.5005V34.898C125.267 34.8984 125.54 34.9422 125.811 35.0351L158.811 46.3494C159.821 46.6959 160.5 47.646 160.5 48.7143V60H169C169.552 60 170 60.4477 170 61V229H181V232H73V229H80.0543C80.0187 228.839 80 228.673 80 228.503V44.3159C80 43.425 80.5217 42.6016 81.3691 42.1552L120.881 21.3397ZM123.354 229H124V228.5H148V205H104V228.004H123.354V229ZM161 229H167V63H161V229ZM151 228.5H157.5V49.0714L125.5 38.1V68H150C150.552 68 151 68.4477 151 69V106H153C153.552 106 154 106.448 154 107V145C154 145.552 153.552 146 153 146H151V228.5ZM148 165V146H104V165H148ZM104 168V202H148V168H104ZM101 146H98C97.4477 146 97 145.552 97 145V107C97 106.448 97.4477 106 98 106H101V69C101 68.4477 101.448 68 102 68H121.707V24.3666L83.2927 44.6039V228.004H101V146ZM151 143V109H100V143H151ZM148 71V106H104V71H148Z" fill="black"/>
</svg>
