<svg width="256" height="256" viewBox="0 0 256 256" fill="none" xmlns="http://www.w3.org/2000/svg">
<path d="M131 211.747V207.747H137V211.747H131Z" fill="black"/>
<path d="M119 207.747V211.747H125V207.747H119Z" fill="black"/>
<path fill-rule="evenodd" clip-rule="evenodd" d="M104 112.747C104 112.195 104.448 111.747 105 111.747H151C151.552 111.747 152 112.195 152 112.747V152.747H104V112.747ZM107 149.747V114.747H149V149.747H107Z" fill="black"/>
<path d="M177 69.7472H180V67.7472H174V69.7472H171V71.7472H177V69.7472Z" fill="black"/>
<path d="M163 108.747H169V110.747H173V112.747H167V110.747H163V108.747Z" fill="black"/>
<path fill-rule="evenodd" clip-rule="evenodd" d="M112 55.7472C107.582 55.7472 104 59.3289 104 63.7472V95.7472H152V63.7472C152 59.3289 148.418 55.7472 144 55.7472H112ZM144 58.7472H112C109.239 58.7472 107 60.9858 107 63.7472V92.7472H149V63.7472C149 60.9858 146.761 58.7472 144 58.7472Z" fill="black"/>
<path d="M183 54.2472H160C158.619 54.2472 157.5 55.3665 157.5 56.7472V63.2472C157.5 64.6279 158.619 65.7472 160 65.7472H162V68.7472H160C158.619 68.7472 157.5 69.8665 157.5 71.2472V80.7472C157.5 82.1279 158.619 83.2472 160 83.2472H162V85.7472H160C158.619 85.7472 157.5 86.8665 157.5 88.2472V97.2472C157.5 98.6279 158.619 99.7472 160 99.7472H162V102.747H160C158.619 102.747 157.5 103.867 157.5 105.247V114.247C157.5 115.628 158.619 116.747 160 116.747H162V119.747H160C158.619 119.747 157.5 120.867 157.5 122.247V131.247C157.5 132.628 158.619 133.747 160 133.747H162V136.747H160C158.619 136.747 157.5 137.867 157.5 139.247V150.747C157.5 152.128 158.619 153.247 160 153.247H183V150.247H160.5V139.747H162.5C163.881 139.747 165 138.628 165 137.247V133.247C165 131.867 163.881 130.747 162.5 130.747H160.5V122.747H162.5C163.881 122.747 165 121.628 165 120.247V116.247C165 114.867 163.881 113.747 162.5 113.747H160.5V105.747H162.5C163.881 105.747 165 104.628 165 103.247V99.2472C165 97.8665 163.881 96.7472 162.5 96.7472H160.5V88.7472H162.5C163.881 88.7472 165 87.6279 165 86.2472V82.7472C165 81.3665 163.881 80.2472 162.5 80.2472H160.5V71.7472H162.5C163.881 71.7472 165 70.6279 165 69.2472V65.2472C165 63.8665 163.881 62.7472 162.5 62.7472H160.5V57.2472H183V54.2472Z" fill="black"/>
<path d="M80 126.747H86V128.747H89V130.747H83V128.747H80V126.747Z" fill="black"/>
<path d="M75 70.7472H81V72.7472H84V74.7472H80V76.7472H74V74.7472H78V72.7472H75V70.7472Z" fill="black"/>
<path fill-rule="evenodd" clip-rule="evenodd" d="M71 16C70.4477 16 70 16.4477 70 17V30.2472H65.529C63.7261 30.2472 62.516 32.0976 63.2386 33.7493L65.8636 39.7493C66.2617 40.6592 67.1608 41.2472 68.154 41.2472H70.5483L70.8798 161.247H65.529C63.7261 161.247 62.516 163.098 63.2386 164.749L65.8636 170.749C66.2617 171.659 67.1608 172.247 68.154 172.247H71V203.942C70.8845 204.028 70.7868 204.138 70.7157 204.268L65 214.747V229.747H53V232.747H203.5V229.747H192V214.747L186.284 204.268C186.213 204.138 186.115 204.028 186 203.942V172.247H187.882C188.829 172.247 189.695 171.712 190.118 170.865L193.118 164.865C193.949 163.203 192.74 161.247 190.882 161.247H185.999L186.044 41.2472H187.882C188.829 41.2472 189.695 40.7122 190.118 39.8653L193.118 33.8653C193.949 32.203 192.74 30.2472 190.882 30.2472H186V17C186 16.4477 185.552 16 185 16H71ZM73 19V30H183V19H73ZM189 229.747V215.512L184.219 206.747H158V229.747H189ZM155 229.747V211.51L154.965 210.856C154.277 197.837 143.308 187.254 129.5 186.765V229.747H155ZM126.5 229.747V186.818C113.166 187.769 102.706 198.153 102.035 210.856L102 211.51V229.747H126.5ZM99 229.747V206.747H72.7809L68 215.512V229.747H99ZM128.5 175.747C143.257 175.747 155.483 187.891 157.657 203.747H183V172.247H74V203.747H99.3434C101.468 188.248 113.196 176.297 127.505 175.766C127.668 175.753 127.833 175.747 128 175.747C128.056 175.747 128.111 175.748 128.166 175.749C128.277 175.748 128.389 175.747 128.5 175.747ZM127.656 178.762C127.819 178.757 127.982 178.752 128.146 178.75C129.963 178.817 131 180.136 131 181.247C131 182.388 129.908 183.747 128 183.747C126.092 183.747 125 182.388 125 181.247C125 180.177 125.961 178.914 127.656 178.762ZM122.278 179.589C114.769 181.653 108.395 187.368 104.892 195.122C109.22 189.568 115.611 185.59 122.969 184.246C122.356 183.383 122 182.353 122 181.247C122 180.669 122.097 180.112 122.278 179.589ZM133.134 184.096C133.683 183.265 134 182.29 134 181.247C134 180.567 133.865 179.915 133.619 179.314C141.604 181.102 148.434 186.99 152.108 195.122C147.605 189.343 140.869 185.271 133.134 184.096ZM132 41.3131V51.7472C132 52.2995 131.552 52.7472 131 52.7472H124C123.448 52.7472 123 52.2995 123 51.7472V41.4298L100 41.4257V50.7472C100 51.2995 99.5523 51.7472 99 51.7472H96C95.4477 51.7472 95 51.2995 95 50.7472V41.4248L81 41.4224V50.7472C81 51.2995 80.5523 51.7472 80 51.7472H77C76.4477 51.7472 76 51.2995 76 50.7472V41.4215L73.5488 41.4211L73.5842 54.2472H95C96.3807 54.2472 97.5 55.3665 97.5 56.7472V63.2472C97.5 64.6279 96.3807 65.7472 95 65.7472H93V68.7472H95C96.3807 68.7472 97.5 69.8665 97.5 71.2472V80.7472C97.5 82.1279 96.3807 83.2472 95 83.2472H93V85.7472H95C96.3807 85.7472 97.5 86.8665 97.5 88.2472V97.2472C97.5 98.6279 96.3807 99.7472 95 99.7472H93V102.747H95C96.3807 102.747 97.5 103.867 97.5 105.247V114.247C97.5 115.628 96.3807 116.747 95 116.747H93V119.747H95C96.3807 119.747 97.5 120.867 97.5 122.247V131.247C97.5 132.628 96.3807 133.747 95 133.747H93V136.747H95C96.3807 136.747 97.5 137.867 97.5 139.247V150.747C97.5 152.128 96.3807 153.247 95 153.247H73.8577L73.8798 161.247H182.999L183.044 41.3221L181 41.3218V50.7472C181 51.2995 180.552 51.7472 180 51.7472H177C176.448 51.7472 176 51.2995 176 50.7472V41.3209L162 41.3184V50.7472C162 51.2995 161.552 51.7472 161 51.7472H158C157.448 51.7472 157 51.2995 157 50.7472V41.3175L132 41.3131ZM73.8494 150.247H94.5V139.747H92.5C91.1193 139.747 90 138.628 90 137.247V133.247C90 131.867 91.1193 130.747 92.5 130.747H94.5V122.747H92.5C91.1193 122.747 90 121.628 90 120.247V116.247C90 114.867 91.1193 113.747 92.5 113.747H94.5V105.747H92.5C91.1193 105.747 90 104.628 90 103.247V99.2472C90 97.8665 91.1193 96.7472 92.5 96.7472H94.5V88.7472H92.5C91.1193 88.7472 90 87.6279 90 86.2472V82.7472C90 81.3665 91.1193 80.2472 92.5 80.2472H94.5V71.7472H92.5C91.1193 71.7472 90 70.6279 90 69.2472V65.2472C90 63.8665 91.1193 62.7472 92.5 62.7472H94.5V57.2472H73.5925L73.8494 150.247ZM95 38.2472H81V35.7472C81 35.1949 80.5523 34.7472 80 34.7472H77C76.4477 34.7472 76 35.1949 76 35.7472V38.2472H68.481L66.2935 33.2472H190.073L187.573 38.2472H181V35.7472C181 35.1949 180.552 34.7472 180 34.7472H177C176.448 34.7472 176 35.1949 176 35.7472V38.2472H162V35.7472C162 35.1949 161.552 34.7472 161 34.7472H158C157.448 34.7472 157 35.1949 157 35.7472V38.2472H132V36.7472C132 36.1949 131.552 35.7472 131 35.7472H124C123.448 35.7472 123 36.1949 123 36.7472V38.2472H100V35.7472C100 35.1949 99.5523 34.7472 99 34.7472H96C95.4477 34.7472 95 35.1949 95 35.7472V38.2472ZM68.481 169.247L66.2935 164.247H190.073L187.573 169.247H68.481ZM126 49.7472V38.7472H129V49.7472H126Z" fill="black"/>
</svg>
