<svg width="256" height="256" viewBox="0 0 256 256" fill="none" xmlns="http://www.w3.org/2000/svg">
<path fill-rule="evenodd" clip-rule="evenodd" d="M113 103.243V97.2044C113 88.7553 118.937 81.693 126.867 79.9617L130.861 17.4996L134.946 80.0825C142.617 82.0015 148.298 88.9395 148.298 97.2044V102.561C151.37 104.699 154.026 107.394 156.118 110.5H165C166.381 110.5 167.5 111.619 167.5 113V145.5H177C178.381 145.5 179.5 146.619 179.5 148V226.251C179.63 226.268 179.759 226.286 179.887 226.306C182.421 226.703 184.572 227.684 185.932 229C186.837 229.876 187.392 230.9 187.476 232H176.5V148.5H167.6C169.152 152.707 170 157.254 170 162V231.595H167V162C167 142.118 150.882 126 131 126C120.248 126 110.597 130.714 104 138.188V138.436H103.782C98.3108 144.751 95 152.989 95 162V231.595H92V162C92 156.876 92.9883 151.982 94.7846 147.5H85.5V232H74C74.0844 230.9 74.6391 229.876 75.5441 229C76.9041 227.684 79.0551 226.703 81.5893 226.306C81.8878 226.259 82.1916 226.221 82.5 226.191V147C82.5 145.619 83.6193 144.5 85 144.5H94.5V113C94.5 111.619 95.6193 110.5 97 110.5H106.12C107.995 107.715 110.324 105.261 113 103.243ZM130.44 82.557L130.836 82.5567C138.84 82.6572 145.298 89.1767 145.298 97.2044V100.724C142.504 99.2314 139.449 98.1657 136.217 97.6148L130.982 85.0048L125.748 97.6627C122.252 98.292 118.965 99.5247 116 101.249V97.2044C116 89.1838 122.446 82.6688 130.44 82.557ZM132.547 96.5979L130.988 92.8423L129.434 96.6L132.547 96.5979ZM158.238 127.304V134.088C155.886 131.792 153.245 129.792 150.375 128.145L150.055 111.01L137.912 123.611L137.845 123.599L137.742 123.581L131.122 107.633L124.603 123.396L112.666 111.01L112.354 127.738C109.299 129.404 106.491 131.467 104 133.857V127.304C104 112.327 116.142 100.185 131.119 100.185C140.737 100.185 149.185 105.192 154 112.741V113.5H154.467C156.863 117.544 158.238 122.263 158.238 127.304ZM157.896 113.5C160.032 117.635 161.238 122.329 161.238 127.304V137.368C162.434 138.834 163.525 140.388 164.5 142.02V113.5H157.896ZM97.5 113.5V142.02C98.5396 140.28 99.7109 138.629 101 137.079V127.304C101 122.329 102.206 117.635 104.343 113.5H97.5ZM120.321 123.276L115.531 118.305L115.402 125.207L120.321 123.276ZM147.19 118.305L142.4 123.276L147.319 125.207L147.19 118.305ZM131.127 115.47L133.774 121.846L128.489 121.849L131.127 115.47Z" fill="black"/>
<path fill-rule="evenodd" clip-rule="evenodd" d="M149.179 226.113V169.179C149.179 159.139 141.04 151 131 151C120.96 151 112.821 159.139 112.821 169.179V232.191H109.821V232H100V226H105V227.895C106.254 227.139 107.829 226.582 109.589 226.306C109.666 226.294 109.744 226.283 109.821 226.272V169.179C109.821 167.904 109.934 166.655 110.15 165.442L100.27 150.691L113.949 153.393L110.626 139.232L124.548 147.859L131.26 132.165L137.477 147.664L151.085 139.232L147.749 153.452L161.728 150.691L151.849 165.439C152.066 166.653 152.179 167.902 152.179 169.179V226.399C154.095 226.768 155.765 227.476 157 228.408V226H162V232H152.179V232.191H149.179V232H148.649V226.12C148.808 226.116 148.969 226.113 149.131 226.113L149.179 226.113ZM140.642 149.232L146.511 145.596L144.934 152.317L140.642 149.232ZM155.206 155.037L148.433 156.375L151.364 160.773L155.206 155.037ZM113.564 156.375L106.792 155.037L110.634 160.773L113.564 156.375ZM115.201 145.596L121.069 149.232L116.778 152.317L115.201 145.596ZM133.741 146.409L131.171 140.002L128.456 146.349L133.741 146.409Z" fill="black"/>
<path d="M133.883 231.535V176.883C133.883 175.291 132.592 174 131 174C129.408 174 128.117 175.291 128.117 176.883V231.535H125.117V176.883C125.117 173.634 127.751 171 131 171C134.249 171 136.883 173.634 136.883 176.883V231.535H133.883Z" fill="black"/>
<path d="M125 160V164H129V160H125Z" fill="black"/>
<path d="M117 180V174H121V180H117Z" fill="black"/>
<path d="M100 174V180H105V174H100Z" fill="black"/>
<path d="M157 180V174H162V180H157Z" fill="black"/>
<path d="M117 187V193H121V187H117Z" fill="black"/>
<path d="M100 193V187H105V193H100Z" fill="black"/>
<path d="M157 187V193H162V187H157Z" fill="black"/>
<path d="M117 206V200H121V206H117Z" fill="black"/>
<path d="M100 200V206H105V200H100Z" fill="black"/>
<path d="M157 206V200H162V206H157Z" fill="black"/>
<path d="M117 213V218H121V213H117Z" fill="black"/>
<path d="M100 218V213H105V218H100Z" fill="black"/>
<path d="M157 213V218H162V213H157Z" fill="black"/>
<path d="M117 226H121V232H117V226Z" fill="black"/>
<path d="M141 174V180H145V174H141Z" fill="black"/>
<path d="M141 193V187H145V193H141Z" fill="black"/>
<path d="M141 200V206H145V200H141Z" fill="black"/>
<path d="M141 218V213H145V218H141Z" fill="black"/>
<path d="M141 232H145V226H141V232Z" fill="black"/>
<path d="M137 164H133V160H137V164Z" fill="black"/>
</svg>
