<svg width="256" height="256" viewBox="0 0 256 256" fill="none" xmlns="http://www.w3.org/2000/svg">
<path fill-rule="evenodd" clip-rule="evenodd" d="M219 198C219 197.803 218.992 197.608 218.976 197.415C218.992 197.353 219 197.289 219 197.222C219 193.786 216.214 191 212.778 191H211.222C207.786 191 205 193.786 205 197.222C205 197.289 205.008 197.353 205.024 197.415C205.008 197.608 205 197.803 205 198V214C205 214.552 205.448 215 206 215H218C218.552 215 219 214.552 219 214V198ZM216 212V198H208V212H216ZM214.646 195C213.941 194.378 213.014 194 212 194C210.986 194 210.059 194.378 209.354 195H214.646Z" fill="black"/>
<path fill-rule="evenodd" clip-rule="evenodd" d="M183.997 197.293C183.999 197.362 184 197.431 184 197.5V214C184 214.552 183.552 215 183 215H172C171.448 215 171 214.552 171 214V197.5C171 197.431 171.001 197.362 171.003 197.293C171.001 197.27 171 197.246 171 197.222C171 193.786 173.786 191 177.222 191H177.778C181.214 191 184 193.786 184 197.222C184 197.246 183.999 197.27 183.997 197.293ZM181 198V212H174V198H181ZM177.5 194C178.454 194 179.318 194.381 179.949 195H175.051C175.682 194.381 176.546 194 177.5 194Z" fill="black"/>
<path fill-rule="evenodd" clip-rule="evenodd" d="M177.5 155C180.538 155 183 152.314 183 149C183 145.686 180.538 143 177.5 143C174.462 143 172 145.686 172 149C172 152.314 174.462 155 177.5 155ZM177.5 152C178.64 152 180 150.908 180 149C180 147.092 178.64 146 177.5 146C176.36 146 175 147.092 175 149C175 150.908 176.36 152 177.5 152Z" fill="black"/>
<path fill-rule="evenodd" clip-rule="evenodd" d="M85.9759 197.415C85.9919 197.608 86 197.803 86 198V214C86 214.552 85.5523 215 85 215H73C72.4477 215 72 214.552 72 214V198C72 197.803 72.0081 197.608 72.0241 197.415C72.0084 197.353 72 197.289 72 197.222C72 193.786 74.7858 191 78.2222 191H79.7778C83.2142 191 86 193.786 86 197.222C86 197.289 85.9916 197.353 85.9759 197.415ZM83 198V212H75V198H83ZM79 194C80.0144 194 80.9407 194.378 81.6458 195H76.3542C77.0593 194.378 77.9856 194 79 194Z" fill="black"/>
<path fill-rule="evenodd" clip-rule="evenodd" d="M85 149C85 152.314 82.3137 155 79 155C75.6863 155 73 152.314 73 149C73 145.686 75.6863 143 79 143C82.3137 143 85 145.686 85 149ZM82 149C82 150.657 80.6569 152 79 152C77.3431 152 76 150.657 76 149C76 147.343 77.3431 146 79 146C80.6569 146 82 147.343 82 149Z" fill="black"/>
<path fill-rule="evenodd" clip-rule="evenodd" d="M52 198C52 197.803 51.9919 197.608 51.9759 197.415C51.9916 197.353 52 197.289 52 197.222C52 193.786 49.2142 191 45.7778 191H44.2222C40.7858 191 38 193.786 38 197.222C38 197.289 38.0084 197.353 38.0241 197.415C38.0081 197.608 38 197.803 38 198V214C38 214.552 38.4477 215 39 215H51C51.5523 215 52 214.552 52 214V198ZM49 212V198H41V212H49ZM47.6458 195C46.9407 194.378 46.0144 194 45 194C43.9856 194 43.0593 194.378 42.3542 195H47.6458Z" fill="black"/>
<path fill-rule="evenodd" clip-rule="evenodd" d="M215 61C215.552 61 216 61.4477 216 62V87C216 87.5523 215.552 88 215 88H209V118H232.744C233.387 118 233.863 118.597 233.719 119.224L230.735 132.224C230.649 132.598 230.36 132.882 230 132.971V230.5H234V233.5H22V230.5H27V133H26.7735C26.2956 133 25.8845 132.662 25.7923 132.193L23.2347 119.193C23.1131 118.575 23.5862 118 24.2159 118H48V88H42C41.4477 88 41 87.5523 41 87V62C41 61.4477 41.4477 61 42 61H215ZM213 64V85H44V64H48V81C48 81.5523 48.4477 82 49 82H208C208.552 82 209 81.5523 209 81V64H213ZM206 64V79H51V64H206ZM194 230V220H161V230H194ZM227 219V133H197V219H227ZM187 133V217H168V133H187ZM143 220H158V221H143V220ZM143 224H158V226H143V224ZM143 229H158V230H143V229ZM113 230V229H100V230H113ZM113 226V224H100V226H113ZM113 221V220H100V221H113ZM116 230H140V215H116V230ZM142 212H134V196C134 195.448 133.552 195 133 195H132L133.806 184.164C133.908 183.555 133.437 183 132.82 183H123.22C122.589 183 122.115 183.577 122.239 184.196L124.4 195H123C122.448 195 122 195.448 122 196V212H114C113.448 212 113 212.448 113 213V217H99V133H121.545L122.614 138.879C113.24 141.368 106.332 149.912 106.332 160.069V216.817H109.332V160.069C109.332 149.619 117.804 141.147 128.254 141.147C138.704 141.147 147.176 149.619 147.176 160.069V216.817H150.176V160.069C150.176 149.602 142.841 140.848 133.03 138.669L134.318 133H158V217H143V213C143 212.448 142.552 212 142 212ZM127.459 195H128.959L130.459 186H125.659L127.459 195ZM125 198V212H131V198H125ZM194 133V216H190V133H194ZM196 121V130H188V121H196ZM159 130H167V121H159V130ZM161 133V216H165V133H161ZM92 133H96V216H92V133ZM197 230H227V222H197V230ZM98 130H90V121H98V130ZM89 217V133H69V217H89ZM199 130H228.168L230.233 121H199V130ZM30 230V222H59V230H30ZM62 230V220H96V230H62ZM66 216H62V133H66V216ZM68 130H60V121H68V130ZM57 121V130H28.4184L26.6477 121H57ZM59 219H30V133H59V219ZM197 88H206V118H197V88ZM190 88H194V118H190V88ZM168 88H187V118H168V88ZM161 88H165V118H161V88ZM99 88H158V118H99V88ZM92 88H96V118H92V88ZM69 88H89V118H69V88ZM62 88H66V118H62V88ZM51 88H59V118H51V88ZM71 121V130H87V121H71ZM101 121V130H156V121H101ZM170 121V130H185V121H170ZM124.595 133H131.242L130.105 138H125.504L124.595 133Z" fill="black"/>
</svg>
