<svg width="256" height="256" viewBox="0 0 256 256" fill="none" xmlns="http://www.w3.org/2000/svg">
<path fill-rule="evenodd" clip-rule="evenodd" d="M211.266 129.755C210.501 126.371 207.92 123.604 204.461 122.676L172.531 114.113C170.901 113.676 169.184 113.681 167.556 114.128L136.486 122.654C133.11 123.58 130.582 126.259 129.774 129.546L119.111 131.174C113.307 132.061 109.689 137.947 111.518 143.526L116.908 159.959C116.07 161.729 115.769 163.775 116.179 165.855L116.603 168H88.8976C88.5306 166.231 87.2069 164.771 85.415 164.267L74.4204 161.173C72.7187 160.694 70.9171 160.7 69.2183 161.189L58.572 164.254C56.7845 164.769 55.4672 166.231 55.1019 168H24.958C24.4289 168 24 168.448 24 169V176C24 176.552 24.4289 177 24.958 177H40V187H24.9674C24.4331 187 24 187.448 24 188V216C24 216.552 24.4331 217 24.9674 217H40V229.5H23V232.5H235V229.5H223V217H231.033C231.567 217 232 216.552 232 216V188C232 187.448 231.567 187 231.033 187H223V180.515C223 180.403 222.998 180.292 222.993 180.181L225.817 165.873C226.231 163.774 225.921 161.708 225.065 159.927L229.311 142.997C230.675 137.556 227.053 132.124 221.506 131.291L211.266 129.755ZM171.754 117.011C170.638 116.712 169.464 116.715 168.35 117.021L137.28 125.547C135.402 126.062 133.908 127.37 133.117 129.049C157.942 125.517 183.15 125.586 207.961 129.259C207.189 127.485 205.642 126.099 203.684 125.574L171.754 117.011ZM119 229.5V217H104V229.5H119ZM84.6023 167.155C85.08 167.289 85.4724 167.598 85.7185 168H58.2778C58.5242 167.591 58.9195 167.276 59.4021 167.137L70.0484 164.072C71.2108 163.737 72.4434 163.733 73.6078 164.061L84.6023 167.155ZM130.947 132.402C156.493 128.501 182.481 128.468 208.037 132.303L221.061 134.258C224.856 134.828 227.335 138.545 226.401 142.267L222.739 156.87C221.376 155.68 219.658 154.864 217.72 154.613L204.345 152.877C181.894 149.963 159.158 149.988 136.713 152.952L124.256 154.597C122.248 154.862 120.476 155.733 119.094 156.998L114.369 142.591C113.117 138.774 115.593 134.746 119.564 134.14L130.947 132.402ZM203.959 155.852C181.766 152.971 159.292 152.996 137.106 155.926L124.648 157.571C120.928 158.062 118.396 161.592 119.122 165.274L121.069 175.134C122.354 173.714 124.148 172.753 126.185 172.544L144.388 170.68C161.786 168.898 179.319 168.883 196.72 170.634L215.801 172.555C217.843 172.761 219.641 173.722 220.929 175.145L222.874 165.292C223.602 161.605 221.06 158.071 217.334 157.588L203.959 155.852ZM118.379 177H104V187H119V180.502C119 180.394 119.002 180.286 119.006 180.179L118.379 177ZM117.653 174L117.014 171H26.874V174H117.653ZM222 190L222.004 190H229.098V214H26.9023V190H119.996L120 190H222ZM220 187H122V180.502C122 177.938 123.94 175.79 126.491 175.529L144.694 173.664C161.89 171.903 179.22 171.888 196.419 173.619L215.501 175.54C218.055 175.797 220 177.948 220 180.515V187ZM220 217H122V229H220V217ZM101 217H43V229H101V217ZM101 177.5V186.5H43V177.5H101Z" fill="black"/>
</svg>
